<?xml version="1.0" standalone="no"?>
<!DOCTYPE svg PUBLIC "-//W3C//DTD SVG 1.1//EN" "http://www.w3.org/Graphics/SVG/1.1/DTD/svg11.dtd" >
<svg xmlns="http://www.w3.org/2000/svg">
<defs>
  <font id="SFcon" horiz-adv-x="256">
    <font-face font-family="SFcon"
      units-per-em="256" ascent="256"
      descent="0" />
    <missing-glyph horiz-adv-x="0" />
    <glyph glyph-name="search-light"
      unicode="&#xEA0B;"
      horiz-adv-x="256" d="M117.3333333333333 229.3333333333334A90.66666666666666 90.66666666666666 0 1 1 117.3333333333333 48A90.66666666666666 90.66666666666666 0 0 1 117.3333333333333 229.3333333333334zM16 138.6666666666667A101.33333333333334 101.33333333333334 0 1 0 218.6666666666667 138.6666666666667A100.96000000000001 100.96000000000001 0 0 0 192.6613333333333 70.88L238.4426666666667 25.1093333333333A5.333333333333333 5.333333333333333 0 0 0 230.8906666666667 17.5573333333333L185.12 63.3386666666667A100.96000000000001 100.96000000000001 0 0 0 117.3333333333333 37.3333333333333A101.33333333333334 101.33333333333334 0 0 0 16 138.6666666666667z" />
    <glyph glyph-name="search-regular"
      unicode="&#xEA0C;"
      horiz-adv-x="256" d="M117.3333333333333 226.6666666666667A88 88 0 1 1 117.3333333333333 50.6666666666667A88 88 0 0 1 117.3333333333333 226.6666666666667zM13.3333333333333 138.6666666666667C13.3333333333333 196.1066666666667 59.8933333333333 242.6666666666667 117.3333333333333 242.6666666666667S221.3333333333333 196.1066666666667 221.3333333333333 138.6666666666667A103.59466666666665 103.59466666666665 0 0 0 196.3093333333333 70.9973333333334L240.32 26.9866666666667A8 8 0 1 0 229.0133333333333 15.68L185.0026666666667 59.6906666666667A103.59466666666665 103.59466666666665 0 0 0 117.3333333333333 34.6666666666667C59.8933333333333 34.6666666666667 13.3333333333333 81.2266666666667 13.3333333333333 138.6666666666667z" />
    <glyph glyph-name="search-bold"
      unicode="&#xEA0D;"
      horiz-adv-x="256" d="M117.3333333333333 224A85.33333333333333 85.33333333333333 0 1 1 117.3333333333333 53.3333333333333A85.33333333333333 85.33333333333333 0 0 1 117.3333333333333 224zM10.6666666666667 138.6666666666667C10.6666666666667 197.5786666666667 58.4213333333333 245.3333333333334 117.3333333333333 245.3333333333334S224 197.5786666666667 224 138.6666666666667A106.21866666666668 106.21866666666668 0 0 0 199.9253333333333 71.1573333333333L242.208 28.8746666666667A10.666666666666666 10.666666666666666 0 0 0 227.1253333333334 13.792L184.8426666666667 56.0746666666667A106.21866666666668 106.21866666666668 0 0 0 117.3333333333333 32C58.4213333333333 32 10.6666666666667 79.7546666666667 10.6666666666667 138.6666666666667z" />
    <glyph glyph-name="search-light-sharp"
      unicode="&#xEA0F;"
      horiz-adv-x="256" d="M117.3333333333333 229.3333333333334A90.66666666666666 90.66666666666666 0 1 1 117.3333333333333 48A90.66666666666666 90.66666666666666 0 0 1 117.3333333333333 229.3333333333334zM16 138.6666666666667A101.33333333333334 101.33333333333334 0 1 0 218.6666666666667 138.6666666666667A100.96000000000001 100.96000000000001 0 0 0 192.6613333333333 70.88L242.208 21.3333333333333L234.6666666666667 13.792L185.12 63.3386666666667A100.96000000000001 100.96000000000001 0 0 0 117.3333333333333 37.3333333333333A101.33333333333334 101.33333333333334 0 0 0 16 138.6666666666667z" />
    <glyph glyph-name="search-regular-sharp"
      unicode="&#xEA10;"
      horiz-adv-x="256" d="M117.3333333333333 226.6666666666667A88 88 0 1 1 117.3333333333333 50.6666666666667A88 88 0 0 1 117.3333333333333 226.6666666666667zM13.3333333333333 138.6666666666667C13.3333333333333 196.1066666666667 59.8933333333333 242.6666666666667 117.3333333333333 242.6666666666667S221.3333333333333 196.1066666666667 221.3333333333333 138.6666666666667A103.59466666666665 103.59466666666665 0 0 0 196.3093333333333 70.9973333333334L245.984 21.3333333333333L234.6666666666667 10.0266666666667L185.0026666666667 59.6906666666667A103.59466666666665 103.59466666666665 0 0 0 117.3333333333333 34.6666666666667C59.8933333333333 34.6666666666667 13.3333333333333 81.2266666666667 13.3333333333333 138.6666666666667z" />
    <glyph glyph-name="search-bold-sharp"
      unicode="&#xEA11;"
      horiz-adv-x="256" d="M117.3333333333333 224A85.33333333333333 85.33333333333333 0 1 1 117.3333333333333 53.3333333333333A85.33333333333333 85.33333333333333 0 0 1 117.3333333333333 224zM10.6666666666667 138.6666666666667C10.6666666666667 197.5786666666667 58.4213333333333 245.3333333333334 117.3333333333333 245.3333333333334S224 197.5786666666667 224 138.6666666666667A106.21866666666668 106.21866666666668 0 0 0 199.9253333333333 71.1573333333333L249.7493333333334 21.3333333333333L234.6666666666667 6.2506666666667L184.8426666666667 56.0746666666666A106.21866666666668 106.21866666666668 0 0 0 117.3333333333333 32C58.4213333333333 32 10.6666666666667 79.7546666666667 10.6666666666667 138.6666666666667z" />
    <glyph glyph-name="filter-light"
      unicode="&#xEA13;"
      horiz-adv-x="256" d="M26.6666666666667 224A16 16 0 0 0 42.6666666666667 240H213.3333333333333A16 16 0 0 0 229.3333333333333 224V212.2026666666667A16 16 0 0 0 225.0346666666667 201.2906666666667L154.6666666666667 125.8986666666667V64A16 16 0 0 0 148.2666666666667 51.2L126.9333333333333 35.2C116.384 27.2853333333333 101.3333333333333 34.816 101.3333333333333 48V125.8986666666667L30.9653333333333 201.28A16 16 0 0 0 26.6666666666667 212.2026666666667V224zM112 122.6666666666667V48A5.333333333333333 5.333333333333333 0 0 1 120.5333333333333 43.7333333333334L141.8666666666667 59.7333333333334A5.333333333333333 5.333333333333333 0 0 1 144 64V122.6666666666667H112zM147.0186666666667 133.3333333333334L217.2373333333333 208.5653333333334A5.333333333333333 5.333333333333333 0 0 1 218.6666666666667 212.2026666666667V224A5.333333333333333 5.333333333333333 0 0 1 213.3333333333333 229.3333333333334H42.6666666666667A5.333333333333333 5.333333333333333 0 0 1 37.3333333333333 224V212.2026666666667A5.333333333333333 5.333333333333333 0 0 1 38.7626666666667 208.5653333333334L108.9813333333333 133.3333333333334H147.0186666666667z" />
    <glyph glyph-name="filter-regular"
      unicode="&#xEA14;"
      horiz-adv-x="256" d="M24 224C24 234.304 32.3626666666667 242.6666666666667 42.6666666666667 242.6666666666667H213.3333333333333C223.6373333333333 242.6666666666667 232 234.304 232 224V212.2026666666667C232 207.4773333333333 230.208 202.9226666666667 226.9866666666667 199.4666666666667L157.3333333333333 124.8426666666667V64C157.3333333333333 58.1333333333333 154.56 52.5866666666667 149.8666666666667 49.0666666666667L128.5333333333333 33.0666666666667C116.224 23.84 98.6666666666666 32.6186666666667 98.6666666666666 48V124.8426666666667L29.0133333333333 199.4666666666667A18.66666666666667 18.66666666666667 0 0 0 24 212.2026666666667V224zM114.6666666666667 120V48A2.6666666666666665 2.6666666666666665 0 0 1 118.9333333333333 45.8666666666667L140.2666666666667 61.8666666666667A2.6666666666666665 2.6666666666666665 0 0 1 141.3333333333333 64V120H114.6666666666667zM145.856 136L215.2853333333333 210.3893333333333A2.6666666666666665 2.6666666666666665 0 0 1 216 212.2026666666667V224A2.6666666666666665 2.6666666666666665 0 0 1 213.3333333333333 226.6666666666667H42.6666666666667A2.6666666666666665 2.6666666666666665 0 0 1 40 224V212.2026666666667A2.6666666666666665 2.6666666666666665 0 0 1 40.7146666666667 210.3893333333333L110.144 136H145.856z" />
    <glyph glyph-name="filter-bold"
      unicode="&#xEA15;"
      horiz-adv-x="256" d="M21.3333333333333 224A21.333333333333332 21.333333333333332 0 0 0 42.6666666666667 245.3333333333334H213.3333333333333A21.333333333333332 21.333333333333332 0 0 0 234.6666666666667 224V212.2026666666667A21.333333333333332 21.333333333333332 0 0 0 228.928 197.6533333333333L160 123.7973333333334V64A21.333333333333332 21.333333333333332 0 0 0 151.4666666666667 46.9333333333333L130.1333333333333 30.9333333333333C116.0746666666667 20.384 96 30.4213333333333 96 48V123.7973333333333L27.072 197.6533333333333A21.333333333333332 21.333333333333332 0 0 0 21.3333333333333 212.2026666666667V224zM117.3333333333333 117.3333333333334V48L138.6666666666667 64V117.3333333333333H117.3333333333333zM144.6933333333333 138.6666666666667L213.3333333333333 212.2026666666667V224H42.6666666666667V212.2026666666667L111.3066666666667 138.6666666666667H144.6933333333333z" />
    <glyph glyph-name="filter-solid"
      unicode="&#xEA16;"
      horiz-adv-x="256" d="M208 234.6666666666667H48A16 16 0 0 1 32 218.6666666666667V214.304C32 210.2506666666667 33.536 206.3573333333334 36.2986666666667 203.392L102.368 132.608A16 16 0 0 0 106.6666666666667 121.7066666666667V58.6666666666667C106.6666666666667 45.4826666666667 121.7173333333333 37.952 132.2666666666667 45.8666666666667L142.9333333333333 53.8666666666667A16 16 0 0 1 149.3333333333333 66.6666666666667V121.696C149.3333333333333 125.7493333333334 150.8693333333333 129.6426666666667 153.632 132.608L219.7013333333333 203.392A16 16 0 0 1 224 214.2933333333334V218.6666666666667A16 16 0 0 1 208 234.6666666666667z" />
    <glyph glyph-name="filter-light-sharp"
      unicode="&#xEA17;"
      horiz-adv-x="256" d="M26.6666666666667 240H229.3333333333333V205.8986666666667L154.6666666666667 125.8986666666667V56L101.3333333333333 16V125.8986666666667L26.6666666666667 205.8986666666667V240zM112 122.6666666666667V37.3333333333334L144 61.3333333333334V122.6666666666667H112zM147.0186666666667 133.3333333333334L218.6666666666667 210.1013333333334V229.3333333333334H37.3333333333333V210.1013333333334L108.9813333333333 133.3333333333334H147.0186666666667z" />
    <glyph glyph-name="filter-regular-sharp"
      unicode="&#xEA18;"
      horiz-adv-x="256" d="M24 242.6666666666667H232V204.8426666666667L157.3333333333334 124.8426666666667V54.6666666666667L98.6666666666667 10.6666666666667V124.8426666666667L24 204.8426666666667V242.6666666666667zM114.6666666666667 120V42.6666666666667L141.3333333333333 62.6666666666667V120H114.6666666666667zM145.856 136L216 211.1573333333333V226.6666666666667H40V211.1573333333333L110.144 136H145.856z" />
    <glyph glyph-name="filter-bold-sharp"
      unicode="&#xEA19;"
      horiz-adv-x="256" d="M21.3333333333333 245.3333333333334H234.6666666666667V203.7973333333334L160 123.7973333333334V53.3333333333333L96 5.3333333333333V123.7973333333334L21.3333333333333 203.7973333333334V245.3333333333334zM117.3333333333333 117.3333333333334V48L138.6666666666667 64V117.3333333333333H117.3333333333333zM144.6933333333333 138.6666666666667L213.3333333333333 212.2026666666667V224H42.6666666666667V212.2026666666667L111.3066666666667 138.6666666666667H144.6933333333333z" />
    <glyph glyph-name="filter-solid-sharp"
      unicode="&#xEA1A;"
      horiz-adv-x="256" d="M224 234.6666666666667H32V208L106.6666666666667 128V26.6666666666667L149.3333333333333 58.6666666666667V128L224 208V234.6666666666667z" />
    <glyph glyph-name="edit-light"
      unicode="&#xEA1B;"
      horiz-adv-x="256" d="M197.7173333333333 226.2293333333334C191.424 227.168 185.152 225.6106666666667 179.776 220.224L172.8746666666667 213.3333333333334L213.3333333333333 172.8746666666667L220.224 179.776L224 176L220.224 179.776C225.6106666666667 185.152 227.1573333333334 191.4133333333333 226.2293333333334 197.7173333333333C225.2586666666667 204.2026666666667 221.5893333333334 210.8693333333333 216.224 216.224C210.8693333333333 221.5893333333334 204.2026666666667 225.2586666666667 197.7173333333333 226.2293333333334zM205.792 165.3333333333334L165.3333333333333 205.792L53.0346666666667 93.4933333333333C63.0613333333333 90.272 71.5946666666667 85.28 78.4426666666667 78.4426666666667C85.2906666666667 71.584 90.2826666666667 63.072 93.4933333333333 53.0346666666667L205.792 165.3333333333334zM84.2666666666667 46.5706666666667C81.5466666666667 56.704 77.0346666666667 64.7466666666667 70.88 70.8906666666667C64.736 77.0453333333333 56.6933333333333 81.5573333333333 46.56 84.2773333333333L36.1386666666667 42.624A5.333333333333333 5.333333333333333 0 0 1 42.6133333333333 36.1493333333333L84.2666666666667 46.5706666666667zM161.5466666666667 217.1093333333333L172.2133333333334 227.776A30.784 30.784 0 0 0 199.2746666666667 236.7786666666667C208.448 235.4133333333334 217.12 230.4106666666667 223.7653333333333 223.7653333333333C230.4 217.1306666666667 235.392 208.4693333333334 236.768 199.2853333333333C238.1546666666667 189.92 235.712 180.192 227.7546666666667 172.224L217.088 161.5573333333333L213.3333333333333 165.3333333333334L217.1093333333333 161.5573333333334L94.4426666666667 38.8906666666667A5.333333333333333 5.333333333333333 0 0 0 91.9573333333333 37.4933333333333L45.2053333333333 25.8026666666667A16 16 0 0 0 25.8026666666667 45.216L37.4933333333333 91.9573333333333A5.333333333333333 5.333333333333333 0 0 0 38.8906666666667 94.4426666666667L161.5573333333333 217.1093333333333z" />
    <glyph glyph-name="edit-regular"
      unicode="&#xEA1C;"
      horiz-adv-x="256" d="M181.6533333333333 218.3466666666667L176.64 213.3333333333334L213.3333333333333 176.64L218.3466666666666 181.6533333333333C223.0826666666666 186.3893333333334 224.416 191.7866666666667 223.584 197.3226666666667C222.7306666666667 203.136 219.3813333333333 209.3013333333333 214.3466666666666 214.3466666666667C209.3013333333333 219.3813333333334 203.136 222.72 197.3226666666666 223.584C191.7973333333333 224.416 186.3893333333333 223.0826666666667 181.6533333333333 218.3466666666667zM202.0266666666667 165.3333333333334L165.3333333333333 202.0266666666667L57.92 94.592A63.285333333333334 63.285333333333334 0 0 0 80.32 80.3093333333333A63.296 63.296 0 0 0 94.6026666666667 57.9093333333333L202.016 165.3333333333334zM80.96 48.48C78.2933333333333 57.0133333333334 74.2506666666667 63.7653333333334 69.0133333333333 69.0133333333334C63.7653333333333 74.2506666666667 57.0026666666667 78.2933333333334 48.48 80.96L38.7413333333333 41.9733333333334A2.6666666666666665 2.6666666666666665 0 0 1 41.9733333333333 38.7413333333334L80.9493333333333 48.48zM170.3466666666667 229.6533333333334A33.45066666666667 33.45066666666667 0 0 0 199.68 239.4133333333334C209.536 237.9413333333333 218.6986666666667 232.6186666666667 225.6533333333334 225.6533333333334C232.6186666666667 218.6986666666667 237.9413333333334 209.536 239.4133333333334 199.68A33.45066666666667 33.45066666666667 0 0 0 229.6533333333334 170.3466666666667L218.9866666666667 159.68L96.32 37.0133333333334A8 8 0 0 0 92.608 34.9013333333334L45.856 23.2213333333333A18.66666666666667 18.66666666666667 0 0 0 23.2213333333334 45.856L34.9013333333334 92.608A8 8 0 0 0 37.0133333333334 96.32L170.3466666666667 229.6533333333333z" />
    <glyph glyph-name="edit-bold"
      unicode="&#xEA1D;"
      horiz-adv-x="256" d="M196.928 220.9493333333333C192.1706666666667 221.6533333333333 187.6373333333334 220.544 183.5413333333334 216.4586666666667L180.416 213.3333333333334L213.3333333333333 180.416L216.4586666666667 183.5413333333334C220.544 187.6373333333334 221.664 192.1706666666667 220.9493333333333 196.928C220.1813333333333 202.0693333333333 217.184 207.7333333333333 212.4586666666667 212.4586666666667C207.7333333333333 217.184 202.0693333333333 220.1813333333333 196.928 220.9493333333333zM198.2506666666667 165.3333333333334L165.3333333333333 198.2506666666667L62.6133333333333 95.5306666666667C70.0373333333333 92.224 76.608 87.808 82.208 82.208C87.808 76.608 92.2346666666667 70.0373333333333 95.5413333333333 62.624L198.2506666666666 165.3333333333334zM77.504 50.368C74.976 57.2693333333334 71.4666666666667 62.7733333333334 67.1253333333333 67.1146666666667C62.7733333333333 71.4666666666667 57.2693333333333 74.976 50.3786666666667 77.4933333333334L41.3226666666667 41.3333333333334L77.4933333333333 50.3680000000001zM157.792 220.8746666666667L168.4586666666666 231.5413333333334A36.117333333333335 36.117333333333335 0 0 0 200.0746666666667 242.048C210.6026666666666 240.48 220.2666666666667 234.816 227.5413333333333 227.5413333333334C234.816 220.2666666666667 240.48 210.6026666666667 242.048 200.0746666666667A36.117333333333335 36.117333333333335 0 0 0 231.5413333333333 168.4586666666667L220.8746666666667 157.792L98.208 35.1253333333333A10.666666666666666 10.666666666666666 0 0 0 93.2586666666667 32.32L46.496 20.6293333333334C30.88 16.7253333333334 16.7253333333333 30.8693333333334 20.6293333333333 46.496L32.32 93.2480000000001A10.666666666666666 10.666666666666666 0 0 0 35.1253333333333 98.2080000000001L157.792 220.8746666666667z" />
    <glyph glyph-name="edit-solid"
      unicode="&#xEA1E;"
      horiz-adv-x="256" d="M224 176C250.6666666666667 202.6666666666667 202.6666666666667 250.6666666666667 176 224L172.8746666666667 220.8746666666667A10.666666666666666 10.666666666666666 0 0 1 172.8746666666667 205.792L205.792 172.8746666666667A10.666666666666666 10.666666666666666 0 0 1 220.8746666666666 172.8746666666667L224 176zM147.1253333333333 195.1253333333334L42.6666666666667 90.6666666666667C64 90.6666666666667 90.6666666666667 64 90.6666666666667 42.6666666666667L195.1253333333333 147.1253333333334A10.666666666666666 10.666666666666666 0 0 1 195.1253333333333 162.208L162.208 195.1253333333334A10.666666666666666 10.666666666666666 0 0 1 147.1253333333333 195.1253333333334zM73.728 46.9333333333333A35.797333333333334 35.797333333333334 0 0 1 46.9333333333333 73.7173333333334C42.1653333333333 74.8266666666667 37.8453333333333 71.328 36.6613333333333 66.5706666666667L30.9866666666667 43.904A10.666666666666666 10.666666666666666 0 0 1 43.9253333333333 30.9653333333334L66.6026666666667 36.64C71.3493333333333 37.8133333333334 74.848 42.144 73.7493333333333 46.912z" />
    <glyph glyph-name="edit-light-sharp"
      unicode="&#xEA1F;"
      horiz-adv-x="256" d="M197.7173333333333 226.2293333333334C191.424 227.168 185.152 225.6106666666667 179.776 220.224L172.8746666666667 213.3333333333334L213.3333333333333 172.8746666666667L220.224 179.776C225.6106666666667 185.152 227.1573333333334 191.4133333333334 226.2293333333334 197.7173333333333C225.2586666666667 204.2026666666667 221.5893333333334 210.8693333333334 216.224 216.224C210.8693333333333 221.5893333333334 204.2026666666667 225.2586666666667 197.7173333333333 226.2293333333334zM205.792 165.3333333333334L165.3333333333333 205.792L53.0346666666667 93.4933333333333C63.0613333333333 90.272 71.5946666666667 85.28 78.4426666666667 78.4426666666667C85.2906666666667 71.584 90.2826666666667 63.072 93.4933333333333 53.0346666666667L205.792 165.3333333333334zM84.2666666666667 46.5706666666667C81.5466666666667 56.704 77.0346666666667 64.7466666666667 70.88 70.8906666666667C64.736 77.0453333333333 56.6933333333333 81.5573333333333 46.56 84.2773333333333L33.984 33.9946666666667L84.2666666666667 46.5706666666667zM161.5466666666667 217.1093333333333L172.2133333333334 227.776A30.784 30.784 0 0 0 199.2746666666667 236.7786666666667C208.448 235.4133333333334 217.12 230.4106666666667 223.7653333333333 223.7653333333333C230.4 217.1306666666667 235.392 208.4693333333334 236.768 199.2853333333333C238.1546666666667 189.92 235.712 180.192 227.7546666666667 172.224L217.088 161.5573333333333L93.408 37.8453333333333L19.3493333333333 19.3386666666667L37.8666666666667 93.3973333333333L161.5573333333333 217.1093333333333z" />
    <glyph glyph-name="edit-regular-sharp"
      unicode="&#xEA20;"
      horiz-adv-x="256" d="M181.6533333333333 218.3466666666667L176.64 213.3333333333334L213.3333333333333 176.64L218.3466666666666 181.6533333333333C223.0826666666666 186.3893333333334 224.416 191.7866666666667 223.584 197.3226666666667C222.7306666666667 203.136 219.3813333333333 209.3013333333333 214.3466666666666 214.3466666666667C209.3013333333333 219.3813333333334 203.136 222.72 197.3226666666666 223.584C191.7973333333333 224.416 186.3893333333333 223.0826666666667 181.6533333333333 218.3466666666667zM202.0266666666667 165.3333333333334L165.3333333333333 202.0266666666667L57.92 94.592A63.285333333333334 63.285333333333334 0 0 0 80.32 80.3093333333333A63.296 63.296 0 0 0 94.6026666666667 57.9093333333333L202.016 165.3333333333334zM80.96 48.48C78.2933333333333 57.0133333333334 74.2506666666667 63.7653333333334 69.0133333333333 69.0133333333334C63.7653333333333 74.2506666666667 57.0026666666667 78.2933333333334 48.48 80.96L37.664 37.6533333333334L80.9493333333333 48.48zM170.3466666666667 229.6533333333334A33.45066666666667 33.45066666666667 0 0 0 199.68 239.4133333333334C209.536 237.9413333333333 218.6986666666667 232.6186666666667 225.6533333333334 225.6533333333334C232.6186666666667 218.6986666666667 237.9413333333334 209.536 239.4133333333334 199.68A33.45066666666667 33.45066666666667 0 0 0 229.6533333333334 170.3466666666667L218.9866666666667 159.68L94.752 35.4453333333333L15.68 15.6693333333334L35.456 94.752L170.3466666666667 229.6533333333334z" />
    <glyph glyph-name="edit-bold-sharp"
      unicode="&#xEA21;"
      horiz-adv-x="256" d="M196.928 220.9493333333333C192.1706666666667 221.6533333333333 187.6373333333334 220.544 183.5413333333334 216.4586666666667L180.416 213.3333333333334L213.3333333333333 180.416L216.4586666666667 183.5413333333334C220.544 187.6373333333334 221.664 192.1706666666667 220.9493333333333 196.928C220.1813333333333 202.0693333333333 217.184 207.7333333333333 212.4586666666667 212.4586666666667C207.7333333333333 217.184 202.0693333333333 220.1813333333333 196.928 220.9493333333333zM198.2506666666667 165.3333333333334L165.3333333333333 198.2506666666667L62.6133333333333 95.5306666666667C70.0373333333333 92.224 76.608 87.808 82.208 82.208C87.808 76.608 92.2346666666667 70.0373333333333 95.5413333333333 62.624L198.2506666666666 165.3333333333334zM77.504 50.368C74.976 57.2693333333334 71.4666666666667 62.7733333333334 67.1253333333333 67.1146666666667C62.7733333333333 71.4666666666667 57.2693333333333 74.976 50.3786666666667 77.4933333333334L41.3226666666667 41.3333333333334L77.4933333333333 50.3680000000001zM157.792 220.8746666666667L168.4586666666666 231.5413333333334A36.117333333333335 36.117333333333335 0 0 0 200.0746666666667 242.048C210.6026666666666 240.48 220.2666666666667 234.816 227.5413333333333 227.5413333333334C234.816 220.2666666666667 240.48 210.6026666666667 242.048 200.0746666666667A36.117333333333335 36.117333333333335 0 0 0 231.5413333333333 168.4586666666667L220.8746666666667 157.792L96.1173333333333 33.0346666666667L12.0106666666667 12.0106666666667L33.0346666666667 96.1173333333333L157.792 220.8746666666667z" />
    <glyph glyph-name="edit-solid-sharp"
      unicode="&#xEA22;"
      horiz-adv-x="256" d="M240 192L192 240L165.3333333333333 213.3333333333334L213.3333333333333 165.3333333333334L240 192zM154.6666666666667 202.6666666666667L42.6666666666667 90.6666666666667C64 90.6666666666667 90.6666666666667 64 90.6666666666667 42.6666666666667L202.6666666666667 154.6666666666667L154.6666666666667 202.6666666666667zM74.6666666666667 38.6666666666667C74.6666666666667 58.6666666666667 58.6666666666667 74.6666666666667 38.6666666666667 74.6666666666667L26.6666666666667 26.6666666666667L74.6666666666667 38.6666666666667z" />
    <glyph glyph-name="spinner-light"
      unicode="&#xEA3B;"
      horiz-adv-x="256" d="M128.128 235.6373333333334A14.752000000000002 14.752000000000002 0 1 1 128.128 206.144A14.752000000000002 14.752000000000002 0 0 1 128.128 235.6373333333334zM110.1546666666667 238.8586666666667A25.41866666666667 25.41866666666667 0 1 0 146.1013333333333 202.912A25.41866666666667 25.41866666666667 0 0 0 110.1546666666667 238.8586666666667zM191.4666666666667 207.8293333333334A16.298666666666666 16.298666666666666 0 1 1 191.4666666666667 175.2426666666667A16.298666666666666 16.298666666666666 0 0 1 191.4666666666667 207.8293333333334zM172.4053333333333 210.6026666666667A26.965333333333337 26.965333333333337 0 1 0 210.528 172.4693333333334A26.965333333333337 26.965333333333337 0 0 0 172.4053333333333 210.6026666666667zM63.2426666666667 206.2826666666667A13.205333333333334 13.205333333333334 0 1 1 63.2426666666667 179.872A13.205333333333334 13.205333333333334 0 0 1 63.2426666666667 206.2826666666667zM46.368 209.9626666666667A23.872 23.872 0 1 0 80.128 176.2026666666667A23.872 23.872 0 0 0 46.368 209.9626666666667zM220.8213333333333 146.0373333333333A17.834666666666664 17.834666666666664 0 1 1 220.8213333333333 110.368A17.834666666666664 17.834666666666664 0 0 1 220.8213333333333 146.0373333333333zM200.6613333333333 148.352A28.50133333333333 28.50133333333333 0 1 0 240.9813333333333 108.0426666666667A28.50133333333333 28.50133333333333 0 0 0 200.6613333333333 148.3626666666667zM35.4346666666667 138.3146666666667A10.112 10.112 0 1 1 35.4346666666667 118.08A10.112 10.112 0 0 1 35.4346666666667 138.3146666666667zM20.7466666666667 142.9013333333333A20.778666666666666 20.778666666666666 0 1 0 50.1333333333333 113.4933333333334A20.778666666666666 20.778666666666666 0 0 0 20.7466666666667 142.88zM191.4666666666667 85.792A20.927999999999997 20.927999999999997 0 1 1 191.4666666666667 43.936A20.927999999999997 20.927999999999997 0 0 1 191.4666666666667 85.792zM169.1306666666666 87.2A31.594666666666665 31.594666666666665 0 1 0 213.8133333333333 42.528A31.594666666666665 31.594666666666665 0 0 0 169.12 87.2zM63.2426666666666 70.3466666666667A7.029333333333333 7.029333333333333 0 1 1 63.2426666666666 56.288A7.029333333333333 7.029333333333333 0 0 1 63.2426666666666 70.336zM50.7413333333333 75.8293333333333A17.68533333333333 17.68533333333333 0 1 0 75.7546666666666 50.8053333333333A17.68533333333333 17.68533333333333 0 0 0 50.7413333333333 75.8293333333333zM128.128 39.4453333333333A3.9466666666666663 3.9466666666666663 0 1 1 128.128 31.5733333333333A3.9466666666666663 3.9466666666666663 0 0 1 128.128 39.4453333333333zM117.8026666666666 45.8346666666667A14.60266666666667 14.60266666666667 0 1 0 138.4533333333333 25.1946666666667A14.60266666666667 14.60266666666667 0 0 0 117.8026666666666 45.8346666666666z" />
    <glyph glyph-name="spinner-regular"
      unicode="&#xEA3C;"
      horiz-adv-x="256" d="M128.128 232.9706666666667A12.085333333333333 12.085333333333333 0 1 1 128.128 208.8A12.085333333333333 12.085333333333333 0 0 1 128.128 232.9706666666667zM108.2773333333333 240.7466666666667A28.085333333333335 28.085333333333335 0 1 0 147.9893333333333 201.0346666666667A28.085333333333335 28.085333333333335 0 0 0 108.2666666666667 240.7466666666667zM191.4773333333333 205.1626666666667A13.621333333333329 13.621333333333329 0 1 1 191.4666666666667 177.92A13.621333333333329 13.621333333333329 0 0 1 191.4666666666667 205.1626666666667zM170.5173333333333 212.4906666666667A29.632 29.632 0 1 0 212.416 170.5813333333334A29.632 29.632 0 0 0 170.5173333333333 212.4906666666667zM63.2533333333333 203.616A10.538666666666668 10.538666666666668 0 1 1 63.2533333333333 182.5386666666667A10.538666666666668 10.538666666666668 0 0 1 63.2533333333333 203.616zM44.48 211.8506666666667A26.538666666666664 26.538666666666664 0 1 0 82.0266666666667 174.3146666666667A26.538666666666664 26.538666666666664 0 0 0 44.48 211.8506666666667zM220.8213333333333 143.3706666666667A15.168 15.168 0 1 1 220.8213333333333 113.024A15.168 15.168 0 0 1 220.8213333333333 143.3706666666667zM198.7733333333333 150.24A31.17866666666667 31.17866666666667 0 1 0 242.8586666666667 106.1546666666667A31.17866666666667 31.17866666666667 0 0 0 198.7733333333333 150.24zM35.4453333333333 135.648A7.445333333333333 7.445333333333333 0 1 1 35.4453333333333 120.7573333333334A7.445333333333333 7.445333333333333 0 0 1 35.4453333333333 135.648zM18.8586666666667 144.7786666666667A23.455999999999996 23.455999999999996 0 1 0 52.032 111.6053333333334A23.455999999999996 23.455999999999996 0 0 0 18.8586666666667 144.7786666666667zM191.4666666666667 83.1253333333334A18.261333333333333 18.261333333333333 0 1 1 191.4666666666667 46.592A18.261333333333333 18.261333333333333 0 0 1 191.4666666666667 83.1253333333334zM167.2426666666667 89.088A34.26133333333334 34.26133333333334 0 1 0 215.6906666666666 40.64A34.26133333333334 34.26133333333334 0 0 0 167.2426666666667 89.088zM63.2426666666667 67.6693333333334A4.351999999999999 4.351999999999999 0 1 1 63.2426666666667 58.9653333333334A4.351999999999999 4.351999999999999 0 0 1 63.2426666666667 67.68zM48.8426666666667 77.7066666666667A20.362666666666666 20.362666666666666 0 1 0 77.6426666666667 48.9173333333333A20.362666666666666 20.362666666666666 0 0 0 48.8426666666667 77.7173333333334zM128.128 36.7786666666667A1.28 1.28 0 1 1 128.128 34.24A1.28 1.28 0 0 1 128.128 36.7786666666667zM115.9146666666667 47.7226666666667A17.269333333333332 17.269333333333332 0 1 0 140.3413333333333 23.296A17.269333333333332 17.269333333333332 0 0 0 115.9146666666667 47.7226666666667z" />
    <glyph glyph-name="spinner-bold"
      unicode="&#xEA3D;"
      horiz-adv-x="256" d="M128.128 230.304A9.418666666666667 9.418666666666667 0 1 1 128.128 211.4666666666667A9.418666666666667 9.418666666666667 0 0 1 128.128 230.304zM106.3893333333333 242.6346666666667A30.752000000000002 30.752000000000002 0 1 0 149.8666666666667 199.1466666666667A30.752000000000002 30.752000000000002 0 0 0 106.3786666666667 242.6346666666667zM191.4666666666667 202.496A10.965333333333332 10.965333333333332 0 1 1 191.4666666666667 180.576A10.965333333333332 10.965333333333332 0 0 1 191.4666666666667 202.496zM168.64 214.368A32.29866666666667 32.29866666666667 0 1 0 214.304 168.704A32.29866666666667 32.29866666666667 0 0 0 168.6293333333333 214.368zM63.2533333333333 200.96A7.872000000000001 7.872000000000001 0 1 1 63.2533333333333 185.2266666666667A7.872000000000001 7.872000000000001 0 0 1 63.2533333333333 200.96zM42.5813333333333 213.728A29.20533333333334 29.20533333333334 0 1 0 83.8826666666667 172.4266666666667A29.20533333333334 29.20533333333334 0 0 0 42.5813333333333 213.728zM220.8106666666667 140.704A12.501333333333333 12.501333333333333 0 1 1 220.8106666666667 115.6906666666667A12.501333333333333 12.501333333333333 0 0 1 220.8106666666667 140.704zM196.8853333333333 152.1173333333333A33.845333333333336 33.845333333333336 0 1 0 212.0533333333334 95.5093333333333A36.906666666666666 36.906666666666666 0 0 0 217.568 38.752A36.928000000000004 36.928000000000004 0 1 0 201.5253333333334 100.3946666666667A33.81333333333333 33.81333333333333 0 0 0 186.976 128.2026666666667C186.976 137.1733333333333 190.5386666666667 145.7813333333333 196.8853333333334 152.128zM35.4453333333333 132.992A4.778666666666667 4.778666666666667 0 1 1 35.4453333333333 123.4346666666667A4.778666666666667 4.778666666666667 0 0 1 35.4453333333333 132.992zM16.96 146.6666666666667A26.112 26.112 0 1 0 53.8986666666667 109.728A26.112 26.112 0 0 0 16.96 146.6666666666667zM191.4666666666667 80.4586666666667A15.594666666666665 15.594666666666665 0 1 1 191.4666666666667 49.2693333333333A15.594666666666665 15.594666666666665 0 0 1 191.4666666666667 80.4586666666667zM63.232 65.0133333333333A1.6960000000000002 1.6960000000000002 0 1 1 63.232 61.6213333333333A1.6960000000000002 1.6960000000000002 0 0 1 63.232 65.0026666666667zM46.9546666666667 79.5946666666667A23.029333333333337 23.029333333333337 0 1 0 79.52 47.0293333333333A23.029333333333337 23.029333333333337 0 0 0 46.9546666666667 79.5946666666667zM128.128 34.112A1.3973333333333335 1.3973333333333335 0 1 1 128.128 36.9066666666667A1.3973333333333335 1.3973333333333335 0 0 1 128.128 34.112zM114.0266666666667 49.6106666666667A19.936 19.936 0 1 0 142.2186666666667 21.4186666666667A19.936 19.936 0 0 0 114.0266666666667 49.6106666666667z" />
    <glyph glyph-name="spinner-solid"
      unicode="&#xEA3E;"
      horiz-adv-x="256" d="M128.128 44.7786666666667A9.28 9.28 0 1 0 128.128 26.2293333333334A9.28 9.28 0 0 0 128.128 44.7786666666667zM191.4666666666667 91.1253333333334A26.261333333333337 26.261333333333337 0 1 0 191.4666666666667 38.6026666666667A26.261333333333337 26.261333333333337 0 0 0 191.4666666666667 91.1253333333334zM63.2533333333333 75.68A12.341333333333331 12.341333333333331 0 0 0 67.9786666666667 51.8933333333333A12.373333333333333 12.373333333333333 0 1 0 63.2426666666667 75.68zM220.8106666666667 151.36A23.168000000000003 23.168000000000003 0 1 0 220.8106666666667 105.0133333333333A23.168000000000003 23.168000000000003 0 0 0 220.8106666666667 151.36zM35.424 143.6373333333334A15.445333333333332 15.445333333333332 0 1 0 35.424 112.7466666666667A15.445333333333332 15.445333333333332 0 0 0 35.424 143.6373333333334zM191.4666666666667 213.1626666666667A21.632 21.632 0 1 0 191.4666666666667 169.9093333333333A21.632 21.632 0 0 0 191.4666666666667 213.1626666666667zM63.2533333333333 211.6266666666667A18.538666666666668 18.538666666666668 0 1 0 63.2533333333333 174.5493333333333A18.538666666666668 18.538666666666668 0 0 0 63.2533333333333 211.6266666666667zM128.128 240.9813333333334A20.074666666666666 20.074666666666666 0 1 0 128.128 200.8213333333333A20.074666666666666 20.074666666666666 0 0 0 128.128 240.9813333333334z" />
    <glyph glyph-name="print-light"
      unicode="&#xEA43;"
      horiz-adv-x="256" d="M213.3333333333333 149.3333333333334A10.666666666666666 10.666666666666666 0 1 0 192 149.3333333333334A10.666666666666666 10.666666666666666 0 0 0 213.3333333333333 149.3333333333334zM69.3333333333333 224A16 16 0 0 0 85.3333333333333 240H170.6666666666667A16 16 0 0 0 186.6666666666667 224V186.6666666666667H208A37.33333333333334 37.33333333333334 0 0 0 245.3333333333333 149.3333333333334V96A26.666666666666664 26.666666666666664 0 0 0 218.6666666666667 69.3333333333333H186.6666666666667V32A16 16 0 0 0 170.6666666666667 16H85.3333333333333A16 16 0 0 0 69.3333333333333 32V69.3333333333333H37.3333333333333A26.666666666666664 26.666666666666664 0 0 0 10.6666666666667 96V149.3333333333333A37.33333333333334 37.33333333333334 0 0 0 48 186.6666666666667H69.3333333333333V224zM80 186.6666666666667H176V224A5.333333333333333 5.333333333333333 0 0 1 170.6666666666667 229.3333333333334H85.3333333333333A5.333333333333333 5.333333333333333 0 0 1 80 224V186.6666666666667zM69.3333333333333 80V106.6666666666667A16 16 0 0 0 85.3333333333333 122.6666666666667H170.6666666666667A16 16 0 0 0 186.6666666666667 106.6666666666667V80H218.6666666666667A16 16 0 0 1 234.6666666666667 96V149.3333333333333A26.666666666666664 26.666666666666664 0 0 1 208 176H48A26.666666666666664 26.666666666666664 0 0 1 21.3333333333333 149.3333333333334V96A16 16 0 0 1 37.3333333333333 80H69.3333333333333zM85.3333333333333 112A5.333333333333333 5.333333333333333 0 0 1 80 106.6666666666667V32A5.333333333333333 5.333333333333333 0 0 1 85.3333333333333 26.6666666666667H170.6666666666667A5.333333333333333 5.333333333333333 0 0 1 176 32V106.6666666666667A5.333333333333333 5.333333333333333 0 0 1 170.6666666666667 112H85.3333333333333z" />
    <glyph glyph-name="print-regular"
      unicode="&#xEA44;"
      horiz-adv-x="256" d="M204 136A12 12 0 1 1 204 160A12 12 0 0 1 204 136zM85.3333333333333 242.6666666666667A18.66666666666667 18.66666666666667 0 0 1 66.6666666666667 224V189.3333333333334H48A40 40 0 0 1 8 149.3333333333334V96A29.333333333333336 29.333333333333336 0 0 1 37.3333333333333 66.6666666666667H66.6666666666667V32C66.6666666666667 21.696 75.0293333333333 13.3333333333333 85.3333333333333 13.3333333333333H170.6666666666666A18.66666666666667 18.66666666666667 0 0 1 189.3333333333333 32V66.6666666666667H218.6666666666667A29.333333333333336 29.333333333333336 0 0 1 248 96V149.3333333333333A40 40 0 0 1 208 189.3333333333333H189.3333333333334V224A18.66666666666667 18.66666666666667 0 0 1 170.6666666666667 242.6666666666667H85.3333333333333zM173.3333333333333 189.3333333333334H82.6666666666667V224A2.6666666666666665 2.6666666666666665 0 0 0 85.3333333333333 226.6666666666667H170.6666666666667A2.6666666666666665 2.6666666666666665 0 0 0 173.3333333333333 224V189.3333333333334zM66.6666666666667 106.6666666666667V82.6666666666667H37.3333333333333C29.9733333333333 82.6666666666667 24 88.64 24 96V149.3333333333334A24 24 0 0 0 48 173.3333333333334H208A24 24 0 0 0 232 149.3333333333334V96C232 88.64 226.0266666666667 82.6666666666667 218.6666666666667 82.6666666666667H189.3333333333333V106.6666666666667A18.66666666666667 18.66666666666667 0 0 1 170.6666666666667 125.3333333333334H85.3333333333333A18.66666666666667 18.66666666666667 0 0 1 66.6666666666667 106.6666666666667zM82.6666666666667 106.6666666666667A2.6666666666666665 2.6666666666666665 0 0 0 85.3333333333333 109.3333333333333H170.6666666666667A2.6666666666666665 2.6666666666666665 0 0 0 173.3333333333333 106.6666666666667V32A2.6666666666666665 2.6666666666666665 0 0 0 170.6666666666667 29.3333333333334H85.3333333333333A2.6666666666666665 2.6666666666666665 0 0 0 82.6666666666667 32V106.6666666666667z" />
    <glyph glyph-name="print-bold"
      unicode="&#xEA45;"
      horiz-adv-x="256" d="M218.6666666666667 146.6666666666667A13.333333333333332 13.333333333333332 0 1 0 192 146.6666666666667A13.333333333333332 13.333333333333332 0 0 0 218.6666666666667 146.6666666666667zM64 224A21.333333333333332 21.333333333333332 0 0 0 85.3333333333333 245.3333333333334H170.6666666666667A21.333333333333332 21.333333333333332 0 0 0 192 224V192H208A42.666666666666664 42.666666666666664 0 0 0 250.6666666666667 149.3333333333334V96A32 32 0 0 0 218.6666666666667 64H192V32A21.333333333333332 21.333333333333332 0 0 0 170.6666666666667 10.6666666666667H85.3333333333333A21.333333333333332 21.333333333333332 0 0 0 64 32V64H37.3333333333333A32 32 0 0 0 5.3333333333333 96V149.3333333333333A42.666666666666664 42.666666666666664 0 0 0 48 192H64V224zM85.3333333333333 192H170.6666666666667V224H85.3333333333333V192zM64 85.3333333333333V106.6666666666667A21.333333333333332 21.333333333333332 0 0 0 85.3333333333333 128H170.6666666666667A21.333333333333332 21.333333333333332 0 0 0 192 106.6666666666667V85.3333333333333H218.6666666666667A10.666666666666666 10.666666666666666 0 0 1 229.3333333333333 96V149.3333333333333A21.333333333333332 21.333333333333332 0 0 1 208 170.6666666666667H48A21.333333333333332 21.333333333333332 0 0 1 26.6666666666666 149.3333333333333V96A10.666666666666666 10.666666666666666 0 0 1 37.3333333333333 85.3333333333333H64zM170.6666666666667 106.6666666666667H85.3333333333333V32H170.6666666666667V106.6666666666667z" />
    <glyph glyph-name="print-solid"
      unicode="&#xEA46;"
      horiz-adv-x="256" d="M170.6666666666667 245.3333333333334H85.3333333333333A10.666666666666666 10.666666666666666 0 0 1 74.6666666666667 234.6666666666667V208H181.3333333333333V234.6666666666667A10.666666666666666 10.666666666666666 0 0 1 170.6666666666667 245.3333333333334zM208 192A32 32 0 0 0 240 160V85.3333333333333A10.666666666666666 10.666666666666666 0 0 0 229.3333333333334 74.6666666666667H208A10.666666666666666 10.666666666666666 0 0 0 197.3333333333334 85.3333333333333V96A21.333333333333332 21.333333333333332 0 0 1 176 117.3333333333334H80A21.333333333333332 21.333333333333332 0 0 1 58.6666666666667 96V85.3333333333333A10.666666666666666 10.666666666666666 0 0 0 48 74.6666666666667H26.6666666666667A10.666666666666666 10.666666666666666 0 0 0 16 85.3333333333333V160A32 32 0 0 0 48 192H208zM205.3333333333334 144A13.333333333333332 13.333333333333332 0 1 1 205.3333333333334 170.6666666666667A13.333333333333332 13.333333333333332 0 0 1 205.3333333333334 144zM170.6666666666667 21.3333333333333H85.3333333333333A10.666666666666666 10.666666666666666 0 0 0 74.6666666666667 32V80A21.333333333333332 21.333333333333332 0 0 0 96 101.3333333333333H160A21.333333333333332 21.333333333333332 0 0 0 181.3333333333334 80V32A10.666666666666666 10.666666666666666 0 0 0 170.6666666666667 21.3333333333333z" />
    <glyph glyph-name="print-light-sharp"
      unicode="&#xEA47;"
      horiz-adv-x="256" d="M213.3333333333333 149.3333333333334A10.666666666666666 10.666666666666666 0 1 0 192 149.3333333333334A10.666666666666666 10.666666666666666 0 0 0 213.3333333333333 149.3333333333334zM69.3333333333333 240H186.6666666666667V186.6666666666667H208A37.33333333333334 37.33333333333334 0 0 0 245.3333333333333 149.3333333333334V69.3333333333333H186.6666666666667V16H69.3333333333333V69.3333333333333H10.6666666666667V149.3333333333334A37.33333333333334 37.33333333333334 0 0 0 48 186.6666666666667H69.3333333333333V240zM80 186.6666666666667H176V229.3333333333334H80V186.6666666666667zM69.3333333333333 80V122.6666666666667H186.6666666666667V80H234.6666666666667V149.3333333333334A26.666666666666664 26.666666666666664 0 0 1 208 176H48A26.666666666666664 26.666666666666664 0 0 1 21.3333333333333 149.3333333333334V80H69.3333333333333zM80 112V26.6666666666667H176V112H80z" />
    <glyph glyph-name="print-regular-sharp"
      unicode="&#xEA48;"
      horiz-adv-x="256" d="M218.6666666666667 146.6666666666667A13.333333333333332 13.333333333333332 0 1 0 192 146.6666666666667A13.333333333333332 13.333333333333332 0 0 0 218.6666666666667 146.6666666666667zM66.6666666666667 242.6666666666667H189.3333333333333V189.3333333333334H208A40 40 0 0 0 248 149.3333333333334V66.6666666666667H189.3333333333334V13.3333333333334H66.6666666666667V66.6666666666667H8V149.3333333333334A40 40 0 0 0 48 189.3333333333334H66.6666666666667V242.6666666666667zM82.6666666666667 189.3333333333334H173.3333333333333V226.6666666666667H82.6666666666667V189.3333333333334zM66.6666666666667 82.6666666666667V125.3333333333334H189.3333333333333V82.6666666666667H232V149.3333333333334A24 24 0 0 1 208 173.3333333333334H48A24 24 0 0 1 24 149.3333333333334V82.6666666666667H66.6666666666667zM82.6666666666667 109.3333333333333V29.3333333333333H173.3333333333333V109.3333333333333H82.6666666666667z" />
    <glyph glyph-name="print-bold-sharp"
      unicode="&#xEA49;"
      horiz-adv-x="256" d="M218.6666666666667 146.6666666666667A13.333333333333332 13.333333333333332 0 1 0 192 146.6666666666667A13.333333333333332 13.333333333333332 0 0 0 218.6666666666667 146.6666666666667zM64 245.3333333333334H192V192H208A42.666666666666664 42.666666666666664 0 0 0 250.6666666666667 149.3333333333334V64H192V10.6666666666667H64V64H5.3333333333333V149.3333333333333A42.666666666666664 42.666666666666664 0 0 0 48 192H64V245.3333333333334zM85.3333333333333 192H170.6666666666667V224H85.3333333333333V192zM64 85.3333333333333V128H192V85.3333333333333H229.3333333333333V149.3333333333334A21.333333333333332 21.333333333333332 0 0 1 208 170.6666666666667H48A21.333333333333332 21.333333333333332 0 0 1 26.6666666666666 149.3333333333334V85.3333333333333H64zM85.3333333333333 106.6666666666667V32H170.6666666666667V106.6666666666667H85.3333333333333z" />
    <glyph glyph-name="print-solid-sharp"
      unicode="&#xEA4A;"
      horiz-adv-x="256" d="M181.3333333333333 245.3333333333334H74.6666666666667V208H181.3333333333333V245.3333333333334zM208 192A32 32 0 0 0 240 160V74.6666666666667H197.3333333333334V117.3333333333334H58.6666666666667V74.6666666666667H16V160A32 32 0 0 0 48 192H208zM205.3333333333334 144A13.333333333333332 13.333333333333332 0 1 1 205.3333333333334 170.6666666666667A13.333333333333332 13.333333333333332 0 0 1 205.3333333333334 144zM181.3333333333333 21.3333333333333H74.6666666666667V101.3333333333333H181.3333333333333V21.3333333333333z" />
    <glyph glyph-name="thumb_up-light"
      unicode="&#xEA4B;"
      horiz-adv-x="256" d="M130.0373333333333 240H133.3333333333333C149.6533333333333 240 160.8 228.4053333333334 163.8826666666666 213.76C166.848 199.7013333333334 162.5813333333333 182.6773333333333 149.3333333333333 168.512V160A5.333333333333333 5.333333333333333 0 0 1 154.6666666666667 154.6666666666667H221.0666666666667A26.666666666666664 26.666666666666664 0 0 0 246.368 119.5733333333333L217.92 34.24A26.666666666666664 26.666666666666664 0 0 0 192.6186666666667 16H32A16 16 0 0 0 16 32V138.6666666666667A16 16 0 0 0 32 154.6666666666667H87.3706666666667L130.0373333333333 240zM85.3333333333333 144H32A5.333333333333333 5.333333333333333 0 0 1 26.6666666666667 138.6666666666667V32A5.333333333333333 5.333333333333333 0 0 1 32 26.6666666666667H85.3333333333333V144zM96 26.6666666666667H192.6186666666667A16 16 0 0 1 207.808 37.6106666666667L236.2453333333333 122.944A16 16 0 0 1 221.0666666666667 144H154.6666666666667A16 16 0 0 0 138.6666666666667 160V172.8746666666667L140.224 174.4426666666667C152.416 186.624 155.7013333333333 200.8426666666667 153.4506666666667 211.5626666666667C151.4346666666667 221.1306666666667 145.2053333333333 227.7973333333334 136.512 229.0986666666667L96 148.0746666666667V26.6666666666667zM66.6666666666667 58.6666666666667A10.666666666666666 10.666666666666666 0 1 0 45.3333333333333 58.6666666666667A10.666666666666666 10.666666666666666 0 0 0 66.6666666666667 58.6666666666667z" />
    <glyph glyph-name="thumb_up-regular"
      unicode="&#xEA4C;"
      horiz-adv-x="256" d="M128.3946666666667 242.6666666666667H133.3333333333334C151.1573333333333 242.6666666666667 163.2 229.9413333333333 166.496 214.3146666666667C169.5893333333334 199.584 165.2266666666667 182.0586666666667 152 167.4666666666667V160C152 158.528 153.1946666666667 157.3333333333333 154.6666666666667 157.3333333333333H221.0666666666667A29.333333333333336 29.333333333333336 0 0 0 248.896 118.72L220.448 33.3866666666667A29.333333333333336 29.333333333333336 0 0 0 192.6186666666667 13.3333333333333H32A18.66666666666667 18.66666666666667 0 0 0 13.3333333333333 32V138.6666666666667C13.3333333333333 148.9706666666667 21.696 157.3333333333334 32 157.3333333333334H85.7173333333333L128.384 242.6666666666667zM82.6666666666667 141.3333333333334H32A2.6666666666666665 2.6666666666666665 0 0 1 29.3333333333333 138.6666666666667V32C29.3333333333333 30.528 30.528 29.3333333333333 32 29.3333333333333H82.6666666666667V141.3333333333334zM98.6666666666667 29.3333333333333H192.6186666666667A13.333333333333332 13.333333333333332 0 0 1 205.2693333333334 38.4533333333334L233.7173333333334 123.7866666666667A13.333333333333332 13.333333333333332 0 0 1 221.0666666666667 141.3333333333334H154.6666666666667A18.66666666666667 18.66666666666667 0 0 0 136 160V173.9733333333333L138.3466666666667 176.32C149.9626666666667 187.9466666666667 152.896 201.2586666666667 150.8373333333333 211.0186666666667C149.1733333333334 218.9333333333333 144.4586666666667 224.352 137.984 226.0693333333334L98.6666666666667 147.4453333333334V29.3333333333333zM66.6666666666667 58.6666666666667A10.666666666666666 10.666666666666666 0 1 0 45.3333333333333 58.6666666666667A10.666666666666666 10.666666666666666 0 0 0 66.6666666666667 58.6666666666667z" />
    <glyph glyph-name="thumb_up-bold"
      unicode="&#xEA4D;"
      horiz-adv-x="256" d="M126.7413333333333 245.3333333333334H133.3333333333334C152.6506666666667 245.3333333333334 165.6106666666667 231.4773333333333 169.1093333333333 214.8693333333334C172.3413333333333 199.4773333333333 167.8826666666667 181.4613333333333 154.6666666666667 166.4426666666667V160H221.0666666666667A32 32 0 0 0 251.424 117.8773333333334L222.976 32.544A32 32 0 0 0 192.6186666666667 10.6666666666667H32A21.333333333333332 21.333333333333332 0 0 0 10.6666666666667 32V138.6666666666667A21.333333333333332 21.333333333333332 0 0 0 32 160H84.0746666666667L126.7413333333333 245.3333333333333zM80 138.6666666666667H32V32H80V138.6666666666667zM101.3333333333333 32H192.6186666666667A10.666666666666666 10.666666666666666 0 0 1 202.752 39.296L231.1893333333333 124.6293333333333A10.666666666666666 10.666666666666666 0 0 1 221.0666666666667 138.6666666666667H154.6666666666667A21.333333333333332 21.333333333333332 0 0 0 133.3333333333333 160V175.0826666666667L136.4586666666667 178.208C147.5093333333333 189.2586666666667 150.08 201.6746666666667 148.2346666666667 210.464C146.9333333333333 216.6293333333333 143.7013333333334 220.8426666666667 139.3173333333334 222.784L101.3333333333333 146.816V32zM69.3333333333333 56A13.333333333333332 13.333333333333332 0 1 0 42.6666666666667 56A13.333333333333332 13.333333333333332 0 0 0 69.3333333333333 56z" />
    <glyph glyph-name="thumb_up-solid"
      unicode="&#xEA4E;"
      horiz-adv-x="256" d="M90.6666666666667 149.3333333333334V21.3333333333333H192.6186666666667A21.333333333333332 21.333333333333332 0 0 1 212.864 35.9146666666667L241.3013333333333 121.248A21.333333333333332 21.333333333333332 0 0 1 221.0773333333333 149.3333333333334H154.6666666666667A10.666666666666666 10.666666666666666 0 0 0 144 160V170.6666666666667C170.6666666666667 197.3333333333334 160 234.6666666666667 133.3333333333334 234.6666666666667L90.6666666666667 149.3333333333334zM16 32V138.6666666666667A10.666666666666666 10.666666666666666 0 0 0 26.6666666666667 149.3333333333334H74.6666666666667V21.3333333333333H26.6666666666667A10.666666666666666 10.666666666666666 0 0 0 16 32zM45.3333333333333 42.6666666666667A10.666666666666666 10.666666666666666 0 1 1 45.3333333333333 64A10.666666666666666 10.666666666666666 0 0 1 45.3333333333333 42.6666666666667z" />
    <glyph glyph-name="thumb_up-light-sharp"
      unicode="&#xEA4F;"
      horiz-adv-x="256" d="M123.6373333333333 240H126.9333333333333C143.2533333333333 240 154.4 228.4053333333334 157.4826666666667 213.76C160.448 199.7013333333334 156.1813333333333 182.6773333333333 142.9333333333333 168.512V154.6666666666667H245.984L206.6986666666667 16H9.6V154.6666666666667H80.9706666666667L123.6373333333333 240zM78.9333333333333 144H20.2666666666667V26.6666666666667H78.9333333333333V144zM89.6 26.6666666666667H198.6346666666667L231.8826666666667 144H132.2666666666667V172.8746666666667L133.824 174.4426666666667C146.016 186.624 149.312 200.8426666666667 147.0506666666667 211.5626666666667C145.0346666666667 221.1306666666667 138.8053333333333 227.7973333333334 130.112 229.0986666666667L89.6 148.0746666666667V26.6666666666667zM60.2666666666667 58.6666666666667A10.666666666666666 10.666666666666666 0 1 0 38.9333333333333 58.6666666666667A10.666666666666666 10.666666666666666 0 0 0 60.2666666666667 58.6666666666667z" />
    <glyph glyph-name="thumb_up-regular-sharp"
      unicode="&#xEA50;"
      horiz-adv-x="256" d="M121.9946666666667 242.6666666666667H126.9333333333333C144.7573333333333 242.6666666666667 156.8 229.9413333333333 160.096 214.3146666666667C163.1893333333333 199.584 158.8266666666667 182.0586666666667 145.6 167.4666666666667V157.3333333333334H249.5146666666667L208.7146666666667 13.3333333333333H6.9333333333333V157.3333333333334H79.3173333333333L121.984 242.6666666666667zM76.2666666666667 141.3333333333334H22.9333333333333V29.3333333333333H76.2666666666667V141.3333333333334zM92.2666666666667 29.3333333333333H196.6186666666667L228.352 141.3333333333334H129.6V173.9733333333333L131.9466666666667 176.32C143.5626666666667 187.9466666666667 146.496 201.2586666666667 144.4373333333333 211.0186666666667C142.7733333333334 218.9333333333333 138.0586666666667 224.352 131.584 226.0693333333334L92.2666666666667 147.4453333333334V29.3333333333333zM60.2666666666667 58.6666666666667A10.666666666666666 10.666666666666666 0 1 0 38.9333333333333 58.6666666666667A10.666666666666666 10.666666666666666 0 0 0 60.2666666666667 58.6666666666667z" />
    <glyph glyph-name="thumb_up-bold-sharp"
      unicode="&#xEA51;"
      horiz-adv-x="256" d="M120.3413333333333 245.3333333333334H126.9333333333333C146.2506666666667 245.3333333333334 159.2106666666667 231.4773333333333 162.7093333333333 214.8693333333334C165.9413333333333 199.4773333333333 161.4826666666667 181.4613333333333 148.2666666666667 166.4426666666667V160H253.0453333333333L210.7306666666667 10.6666666666667H4.2666666666667V160H77.6746666666667L120.3413333333333 245.3333333333333zM73.6 138.6666666666667H25.6V32H73.6V138.6666666666667zM94.9333333333333 32H194.6026666666667L224.8213333333334 138.6666666666667H126.9333333333333V175.0826666666667L130.0586666666667 178.208C141.1093333333334 189.2586666666667 143.68 201.6746666666667 141.824 210.464C140.5333333333334 216.6293333333333 137.2906666666667 220.8426666666667 132.9173333333334 222.784L94.9333333333333 146.816V32zM61.3333333333333 57.3333333333333A12 12 0 1 0 37.3333333333333 57.3333333333333A12 12 0 0 0 61.3333333333333 57.3333333333333z" />
    <glyph glyph-name="thumb_up-solid-sharp"
      unicode="&#xEA52;"
      horiz-adv-x="256" d="M90.6666666666667 149.3333333333334V21.3333333333333H208L250.6666666666667 149.3333333333334H144V170.6666666666667C170.6666666666667 197.3333333333334 160 234.6666666666667 133.3333333333334 234.6666666666667L90.6666666666667 149.3333333333334zM16 21.3333333333333V149.3333333333334H74.6666666666667V21.3333333333333H16zM45.3333333333333 42.6666666666667A10.666666666666666 10.666666666666666 0 1 1 45.3333333333333 64A10.666666666666666 10.666666666666666 0 0 1 45.3333333333333 42.6666666666667z" />
    <glyph glyph-name="user-light"
      unicode="&#xEA53;"
      horiz-adv-x="256" d="M128 234.6666666666667C98.5448533333333 234.6666666666667 74.6666666666667 210.78848 74.6666666666667 181.3333333333334C74.6666666666667 151.8781866666667 98.5448533333333 128 128 128C157.4549333333333 128 181.3333333333333 151.8781866666667 181.3333333333333 181.3333333333334C181.3333333333333 210.78848 157.4549333333333 234.6666666666667 128 234.6666666666667zM64 181.3333333333334C64 216.6795733333333 92.65376 245.3333333333334 128 245.3333333333334C163.3461333333334 245.3333333333334 192 216.6795733333333 192 181.3333333333334C192 145.9872 163.3461333333334 117.3333333333334 128 117.3333333333334C92.65376 117.3333333333334 64 145.9872 64 181.3333333333334zM53.6280533333333 87.9989333333334C38.77408 71.4933333333333 32.056 51.1552 29.04544 36.0970666666667C27.5157333333333 28.4469333333333 33.6023466666667 21.3333333333333 42.6616533333333 21.3333333333333H213.3301333333333C222.3893333333333 21.3333333333333 228.4757333333333 28.4469333333333 226.9461333333333 36.0970666666667C223.936 51.1552 217.2181333333333 71.4933333333333 202.3637333333333 87.9989333333334C187.6778666666667 104.3178666666667 164.6517333333333 117.3333333333334 127.9957333333333 117.3333333333334C91.3399466666667 117.3333333333334 68.31424 104.3178666666667 53.6280533333333 87.9989333333334zM45.6994133333333 95.1338666666667C62.49984 113.8026666666667 88.45536 128 127.9957333333333 128C167.536 128 193.4922666666667 113.8026666666667 210.2922666666667 95.1338666666667C226.9248 76.6528 234.1984 54.2293333333333 237.4058666666667 38.1888C240.496 22.7338666666667 227.8346666666667 10.6666666666667 213.3301333333333 10.6666666666667H42.6616533333333C28.15744 10.6666666666667 15.4955733333333 22.7338666666667 18.5857066666667 38.1888C21.7928533333333 54.2293333333333 29.0667733333333 76.6528 45.6994133333333 95.1338666666667z" />
    <glyph glyph-name="user-regular"
      unicode="&#xEA54;"
      horiz-adv-x="256" d="M128 232C100.0176 232 77.3333333333333 209.3157333333334 77.3333333333333 181.3333333333334C77.3333333333333 153.3509333333333 100.0176 130.6666666666667 128 130.6666666666667C155.9829333333333 130.6666666666667 178.6666666666667 153.3509333333333 178.6666666666667 181.3333333333334C178.6666666666667 209.3157333333334 155.9829333333333 232 128 232zM61.3333333333333 181.3333333333334C61.3333333333333 218.15232 91.1810133333333 248 128 248C164.8192 248 194.6666666666667 218.15232 194.6666666666667 181.3333333333334C194.6666666666667 144.5141333333334 164.8192 114.6666666666667 128 114.6666666666667C91.1810133333333 114.6666666666667 61.3333333333333 144.5141333333334 61.3333333333333 181.3333333333334zM55.6103466666667 86.2154666666667C41.20096 70.2037333333334 34.6218666666667 50.3861333333334 31.6603733333333 35.5744C30.5208533333333 29.8752 34.9636266666667 24 42.66176 24H213.3301333333333C221.0282666666667 24 225.4709333333333 29.8752 224.3317333333333 35.5744C221.3696 50.3861333333334 214.7904 70.2037333333334 200.3818666666667 86.2154666666667C186.224 101.9466666666667 163.9306666666667 114.6666666666667 127.9957333333333 114.6666666666667C92.06112 114.6666666666667 69.7678933333333 101.9466666666667 55.6103466666667 86.2154666666667zM43.7172266666667 96.9184C61.0462933333333 116.1738666666667 87.7344 130.6666666666667 127.9957333333333 130.6666666666667C168.2570666666667 130.6666666666667 194.9450666666667 116.1738666666667 212.2741333333334 96.9184C229.3514666666667 77.9424 236.7648 54.9973333333333 240.0213333333333 38.7114666666667C243.5008 21.3056 229.1957333333334 8 213.3301333333333 8H42.66176C26.7963733333333 8 12.49056 21.3045333333333 15.97088 38.7114666666667C19.2270933333333 54.9973333333333 26.64 77.9424 43.7172266666667 96.9184z" />
    <glyph glyph-name="user-bold"
      unicode="&#xEA55;"
      horiz-adv-x="256" d="M128 229.3333333333334C101.4903466666667 229.3333333333334 80 207.8429866666667 80 181.3333333333334C80 154.82368 101.4903466666667 133.3333333333334 128 133.3333333333334C154.5098666666667 133.3333333333334 176 154.82368 176 181.3333333333334C176 207.8429866666667 154.5098666666667 229.3333333333334 128 229.3333333333334zM58.6666666666667 181.3333333333334C58.6666666666667 219.6250666666667 89.7082666666667 250.6666666666667 128 250.6666666666667C166.2922666666667 250.6666666666667 197.3333333333333 219.6250666666667 197.3333333333333 181.3333333333334C197.3333333333333 143.0410666666667 166.2922666666667 112 128 112C89.7082666666667 112 58.6666666666667 143.0410666666667 58.6666666666667 181.3333333333334zM57.5924266666667 84.4309333333334C43.6276266666667 68.9141333333333 37.1876266666667 49.6181333333334 34.2752 35.0517333333333C33.8244266666667 32.7968 34.45824 30.9269333333334 35.8110933333333 29.4538666666667C37.2529066666667 27.8837333333333 39.6592 26.6666666666667 42.6616533333333 26.6666666666667H213.3301333333333C216.3328 26.6666666666667 218.7392 27.8837333333333 220.1802666666667 29.4538666666667C221.5338666666667 30.9269333333334 222.1674666666667 32.7968 221.7162666666667 35.0517333333333C218.8042666666667 49.6181333333334 212.3637333333333 68.9141333333333 198.3989333333333 84.4309333333334C184.7701333333333 99.5754666666667 163.2096 112 127.9957333333333 112C92.7821866666667 112 71.22144 99.5754666666667 57.5924266666667 84.4309333333334zM41.73504 98.7018666666667C59.59264 118.5450666666667 87.01312 133.3333333333334 127.9957333333333 133.3333333333334C168.9781333333333 133.3333333333334 196.3989333333333 118.5450666666667 214.2570666666667 98.7018666666667C231.7781333333333 79.232 239.3301333333333 55.7653333333334 242.6357333333333 39.2341333333333C246.5066666666667 19.8762666666667 230.5568 5.3333333333333 213.3301333333333 5.3333333333333H42.6616533333333C25.4350933333333 5.3333333333333 9.485504 19.8762666666667 13.3559466666667 39.2341333333333C16.6612266666667 55.7653333333334 24.21312 79.232 41.73504 98.7018666666667z" />
    <glyph glyph-name="user-solid"
      unicode="&#xEA56;"
      horiz-adv-x="256" d="M128 133.3333333333334C160.4010666666667 133.3333333333334 186.6666666666667 159.5992533333333 186.6666666666667 192C186.6666666666667 224.4007466666667 160.4010666666667 250.6666666666667 128 250.6666666666667C95.5992533333333 250.6666666666667 69.3333333333333 224.4007466666667 69.3333333333333 192C69.3333333333333 159.5992533333333 95.5992533333333 133.3333333333334 128 133.3333333333334zM17.2850133333333 31.9488C23.496 80.6624 53.2235733333333 117.3333333333334 128 117.3333333333334C202.7765333333333 117.3333333333334 232.5045333333333 80.6624 238.7146666666667 31.9488C240.2048 20.2613333333333 230.4490666666667 10.6666666666667 218.6666666666667 10.6666666666667H37.3333333333333C25.5512533333333 10.6666666666667 15.79488 20.2613333333333 17.2850133333333 31.9488z" />
    <glyph glyph-name="user-light-sharp"
      unicode="&#xEA57;"
      horiz-adv-x="256" d="M128 245.3333333333334C92.65376 245.3333333333334 64 216.6795733333333 64 181.3333333333334C64 156.8897066666667 77.70336 135.6469333333334 97.8469333333333 124.8672C84.3216 121.8517333333334 72.9335466666667 116.8138666666667 63.3690666666667 110.4373333333334C47.4315733333333 99.8122666666667 36.8733866666667 85.6842666666667 29.8906666666667 71.7184C22.9182933333333 57.7728 19.4589866666667 43.8922666666667 17.7345066666667 33.5434666666667C16.87008 28.3562666666667 16.4359466666667 24.0213333333333 16.2176 20.9632C16.1082666666667 19.4325333333333 16.0529066666667 18.2197333333334 16.0247466666667 17.3749333333334C16.0107733333333 16.9536 16.00352 16.6229333333333 15.9997866666667 16.3914666666667L15.9963733333333 16.1194666666667L15.9959466666667 16.0405333333333L15.99584 16.0149333333333C15.99584 16.0149333333333 15.99584 16 21.3291733333333 16L15.99584 16L15.9960533333333 10.6666666666667H239.9957333333334L239.9957333333334 16.0064L239.9957333333334 16.0405333333333L239.9957333333334 16.1194666666667L239.9914666666667 16.3914666666667C239.9882666666667 16.6229333333333 239.9808 16.9536 239.9669333333333 17.3749333333334C239.9392 18.2197333333334 239.8837333333334 19.4325333333333 239.7738666666667 20.9632C239.5562666666667 24.0213333333333 239.1221333333333 28.3562666666667 238.2570666666667 33.5434666666667C236.5322666666667 43.8922666666667 233.0730666666667 57.7728 226.1013333333333 71.7184C219.1178666666667 85.6842666666667 208.56 99.8122666666667 192.6229333333333 110.4373333333334C183.0592 116.8128 171.6736 121.8506666666667 158.1504 124.8661333333334C178.2954666666667 135.6448 192 156.8887466666667 192 181.3333333333334C192 216.6795733333333 163.3461333333334 245.3333333333334 128 245.3333333333334zM74.6666666666667 181.3333333333334C74.6666666666667 210.78848 98.5448533333333 234.6666666666667 128 234.6666666666667C157.4549333333333 234.6666666666667 181.3333333333333 210.78848 181.3333333333333 181.3333333333334C181.3333333333333 151.8781866666667 157.4549333333333 128 128 128C98.5448533333333 128 74.6666666666667 151.8781866666667 74.6666666666667 181.3333333333334zM234.6624 16C239.9957333333334 16 239.9957333333334 16.0064 239.9957333333334 16.0064L234.6624 16zM227.7354666666667 31.7898666666667C228.4341333333334 27.5957333333333 228.8277333333334 24.0202666666667 229.0474666666667 21.3333333333333H26.9438933333333C27.16448 24.0202666666667 27.5572266666667 27.5957333333333 28.2561066666667 31.7898666666667C29.8642133333333 41.4410666666667 33.0708266666667 54.2272 39.4312533333333 66.9482666666667C45.7813333333333 79.6490666666667 55.2229333333333 92.1877333333333 69.28576 101.5626666666667C83.3153066666667 110.9152 102.2613333333333 117.3333333333334 127.9957333333333 117.3333333333334C153.7301333333333 117.3333333333334 172.6762666666667 110.9152 186.7061333333333 101.5626666666667C200.7690666666667 92.1877333333333 210.2101333333333 79.6490666666667 216.56 66.9482666666667C222.9205333333334 54.2272 226.128 41.4410666666667 227.7354666666667 31.7898666666667z" />
    <glyph glyph-name="user-regular-sharp"
      unicode="&#xEA58;"
      horiz-adv-x="256" d="M77.3333333333333 181.3333333333334C77.3333333333333 209.3157333333334 100.0176 232 128 232C155.9829333333333 232 178.6666666666667 209.3157333333334 178.6666666666667 181.3333333333334C178.6666666666667 153.3509333333333 155.9829333333333 130.6666666666667 128 130.6666666666667C100.0176 130.6666666666667 77.3333333333333 153.3509333333333 77.3333333333333 181.3333333333334zM128 248C91.1810133333333 248 61.3333333333333 218.15232 61.3333333333333 181.3333333333334C61.3333333333333 158.21408 73.1016533333333 137.8432 90.97472 125.8848C79.8507733333333 122.7498666666667 70.2145066666667 118.2058666666667 61.88992 112.656C45.48384 101.7194666666667 34.6465066666667 87.1936 27.5056 72.9109333333333C20.3802666666667 58.6602666666667 16.8578133333333 44.5056 15.1041066666667 33.9818666666667C14.2242133333333 28.7008 13.78112 24.2826666666667 13.55776 21.1530666666667C13.4459733333333 19.5872 13.3888 18.3402666666667 13.35968 17.4645333333334C13.3450666666667 17.0261333333333 13.3374933333333 16.6805333333334 13.3335466666667 16.4352L13.32992 16.1408L13.3293866666667 16.0501333333334L13.32928 16.0202666666667V16.0085333333334L13.3296 8H242.6624L242.6624 16.0085333333334L242.6624 16.0501333333334L242.6624 16.1408L242.6581333333333 16.4352C242.6538666666667 16.6805333333334 242.6464 17.0261333333333 242.6325333333334 17.4645333333334C242.6026666666667 18.3402666666667 242.5461333333334 19.5872 242.4341333333334 21.1530666666667C242.2112 24.2826666666667 241.7674666666667 28.7008 240.8874666666667 33.9818666666667C239.1338666666667 44.5056 235.6117333333333 58.6602666666667 228.4864 72.9109333333333C221.3450666666667 87.1936 210.5077333333333 101.7194666666667 194.1024 112.656C185.7792 118.2048 176.144 122.7477333333334 165.0229333333333 125.8837333333334C182.8970666666667 137.8421333333334 194.6666666666667 158.2130133333334 194.6666666666667 181.3333333333334C194.6666666666667 218.15232 164.8192 248 128 248zM234.6624 16C242.6624 16 242.6624 16.0042666666667 242.6624 16.0085333333334L234.6624 16zM21.32928 16L13.32928 16.0085333333334C13.32928 16.0042666666667 13.32928 16 21.32928 16zM225.1050666666667 31.3514666666667C225.5637333333333 28.6016 225.8869333333334 26.1237333333333 226.1162666666667 24H29.8759466666667C30.1045333333333 26.1237333333333 30.42816 28.6016 30.8865066666667 31.3514666666667C32.4656 40.8277333333334 35.60896 53.3397333333333 41.8165333333333 65.7557333333334C48.0084266666667 78.1397333333334 57.1707733333333 90.2805333333334 70.76512 99.344C84.3092266666667 108.3733333333333 102.728 114.6666666666667 127.9957333333333 114.6666666666667C153.264 114.6666666666667 171.6821333333333 108.3733333333333 185.2266666666666 99.344C198.8213333333334 90.2805333333334 207.984 78.1397333333334 214.1749333333334 65.7557333333334C220.3829333333334 53.3397333333333 223.5264 40.8277333333334 225.1050666666667 31.3514666666667z" />
    <glyph glyph-name="user-bold-sharp"
      unicode="&#xEA59;"
      horiz-adv-x="256" d="M80 181.3333333333334C80 207.8429866666667 101.4903466666667 229.3333333333334 128 229.3333333333334C154.5098666666667 229.3333333333334 176 207.8429866666667 176 181.3333333333334C176 154.82368 154.5098666666667 133.3333333333334 128 133.3333333333334C101.4903466666667 133.3333333333334 80 154.82368 80 181.3333333333334zM128 250.6666666666667C89.7082666666667 250.6666666666667 58.6666666666667 219.6250666666667 58.6666666666667 181.3333333333334C58.6666666666667 159.2417066666667 68.9988266666667 139.5637333333334 85.0944 126.8672C75.85472 123.7845333333334 67.6596266666667 119.7077333333334 60.4107733333333 114.8757333333334C43.536 103.6256 32.41952 88.7018666666667 25.1204266666667 74.1034666666667C17.8421333333333 59.5466666666667 14.2565333333333 45.1189333333334 12.4737066666667 34.4202666666667C11.5781333333333 29.0453333333333 11.1262933333333 24.5429333333333 10.8978133333333 21.3429333333334C10.7834666666667 19.7408 10.7246933333333 18.4597333333333 10.6945066666667 17.5530666666667C10.67936 17.0997333333333 10.6714666666667 16.7381333333333 10.6672 16.4778666666667L10.6633386666667 16.1610666666667L10.6627306666667 16.0608L10.662624 16.0256L10.6626026666667 16.0117333333334C10.6626026666667 16.0053333333333 10.6626026666667 16 21.32928 16L10.6626026666667 16L10.663008 5.3333333333333H245.3290666666667L245.3290666666667 16L234.6624 16C245.3290666666667 16 245.3290666666667 16.0053333333333 245.3290666666667 16.0117333333334L245.3290666666667 16.0256L245.3290666666667 16.0608L245.328 16.1610666666667L245.3248 16.4778666666667C245.3205333333333 16.7381333333333 245.312 17.0997333333333 245.2970666666667 17.5530666666667C245.2672 18.4597333333333 245.2085333333333 19.7408 245.0944 21.3429333333334C244.8650666666667 24.5429333333333 244.4138666666667 29.0453333333333 243.5178666666667 34.4202666666667C241.7354666666667 45.1189333333334 238.1493333333333 59.5466666666667 230.8714666666667 74.1034666666667C223.5722666666667 88.7018666666667 212.4554666666667 103.6256 195.5808 114.8757333333334C188.3338666666667 119.7066666666667 180.1408 123.7824 170.9034666666667 126.8650666666667C187.0005333333334 139.5616 197.3333333333333 159.24064 197.3333333333333 181.3333333333334C197.3333333333333 219.6250666666667 166.2922666666667 250.6666666666667 128 250.6666666666667zM222.4746666666667 30.9130666666667C222.7253333333334 29.4090666666667 222.9354666666667 27.9893333333333 223.1104 26.6666666666667H32.8818133333333C33.0568533333333 27.9893333333333 33.26624 29.4090666666667 33.5169066666667 30.9130666666667C35.06688 40.2144 38.1470933333333 52.4533333333334 44.2017066666667 64.5632C50.2354133333333 76.6314666666667 59.1186133333333 88.3744 72.2442666666667 97.1242666666667C85.3031466666667 105.8304 103.1946666666667 112 127.9957333333333 112C152.7968 112 170.6890666666666 105.8304 183.7472 97.1242666666667C196.8736 88.3744 205.7568 76.6314666666667 211.7898666666667 64.5632C217.8442666666667 52.4533333333334 220.9248 40.2144 222.4746666666667 30.9130666666667z" />
    <glyph glyph-name="user-solid-sharp"
      unicode="&#xEA5A;"
      horiz-adv-x="256" d="M128 133.3333333333334C160.4010666666667 133.3333333333334 186.6666666666667 159.5992533333333 186.6666666666667 192C186.6666666666667 224.4007466666667 160.4010666666667 250.6666666666667 128 250.6666666666667C95.5992533333333 250.6666666666667 69.3333333333333 224.4007466666667 69.3333333333333 192C69.3333333333333 159.5992533333333 95.5992533333333 133.3333333333334 128 133.3333333333334zM16 10.6666666666667C16 69.5765333333334 42.6666666666667 117.3333333333334 128 117.3333333333334C213.3333333333333 117.3333333333334 240 69.5765333333334 240 10.6666666666667H16z" />
    <glyph glyph-name="home-light"
      unicode="&#xEA63;"
      horiz-adv-x="256" d="M137.5232 226.3082666666667C131.8656 230.4990933333334 124.1344 230.4990933333334 118.4768 226.3082666666667L42.6666666666667 170.15296V58.6666666666667C42.6666666666667 49.8304 49.83008 42.6666666666667 58.6666666666667 42.6666666666667H96V128C96 136.8362666666667 103.1634133333333 144 112 144H144C152.8362666666667 144 160 136.8362666666667 160 128V42.6666666666667H197.3333333333333C206.1696 42.6666666666667 213.3333333333333 49.8304 213.3333333333333 58.6666666666667V170.15296L137.5232 226.3082666666667zM149.3333333333333 42.6666666666667V128C149.3333333333333 130.9450666666667 146.9450666666667 133.3333333333334 144 133.3333333333334H112C109.0549333333333 133.3333333333334 106.6666666666667 130.9450666666667 106.6666666666667 128V42.6666666666667H149.3333333333333zM101.3333333333333 32H58.6666666666667C43.9390933333333 32 32 43.9392 32 58.6666666666667V162.2517333333333L15.9745066666667 150.3810133333333C13.60768 148.6282666666667 10.2675946666667 149.1253333333334 8.5143466666667 151.49216C6.761088 153.8589866666667 7.2585386666667 157.19904 9.6254293333333 158.95232L112.1269333333333 234.8795733333334C121.5562666666667 241.8642133333334 134.4437333333334 241.8642133333334 143.8730666666667 234.8795733333334L246.3744 158.95232C248.7413333333334 157.19904 249.2384 153.8589866666667 247.4858666666667 151.49216C245.7322666666667 149.1253333333334 242.3925333333333 148.6282666666667 240.0256 150.3810133333333L224 162.2517333333333V58.6666666666667C224 43.9392 212.0608 32 197.3333333333333 32H154.6666666666667H101.3333333333333z" />
    <glyph glyph-name="home-regular"
      unicode="&#xEA64;"
      horiz-adv-x="256" d="M135.936 224.16544C131.2213333333333 227.6578133333334 124.7786666666667 227.6578133333334 120.064 224.16544L45.3333333333333 168.8097066666667V58.6666666666667C45.3333333333333 51.3024 51.3028266666667 45.3333333333333 58.6666666666667 45.3333333333333H93.3333333333333V128C93.3333333333333 138.3093333333334 101.6906666666667 146.6666666666667 112 146.6666666666667H144C154.3093333333333 146.6666666666667 162.6666666666667 138.3093333333334 162.6666666666667 128V45.3333333333333H197.3333333333333C204.6976 45.3333333333333 210.6666666666667 51.3024 210.6666666666667 58.6666666666667V168.8097066666667L135.936 224.16544zM146.6666666666667 45.3333333333333V128C146.6666666666667 129.4730666666667 145.4730666666667 130.6666666666667 144 130.6666666666667H112C110.5269333333333 130.6666666666667 109.3333333333333 129.4730666666667 109.3333333333333 128V45.3333333333333H146.6666666666667zM101.3333333333333 29.3333333333333H58.6666666666667C42.4663466666667 29.3333333333333 29.3333333333333 42.4661333333333 29.3333333333333 58.6666666666667V156.9578666666667L17.5618133333333 148.2378666666667C14.01152 145.6085333333334 9.001408 146.3541333333334 6.3715306666667 149.9048533333333C3.7416533333333 153.4551466666667 4.4878293333333 158.46528 8.0381653333333 161.0951466666667L110.5397333333333 237.0224C120.912 244.7054933333333 135.088 244.7054933333333 145.4602666666667 237.0224L247.9616 161.0951466666667C251.5125333333333 158.46528 252.2581333333333 153.4551466666667 249.6288 149.9048533333333C246.9984 146.3541333333334 241.9882666666667 145.6085333333334 238.4384 148.2378666666667L226.6666666666667 156.9578666666667V58.6666666666667C226.6666666666667 42.4661333333333 213.5338666666667 29.3333333333333 197.3333333333333 29.3333333333333H154.6666666666667H101.3333333333333z" />
    <glyph glyph-name="home-bold"
      unicode="&#xEA65;"
      horiz-adv-x="256" d="M134.3488 222.0226133333334C130.5770666666667 224.8165333333333 125.4229333333333 224.8165333333333 121.6512 222.0226133333334L48 167.4664533333333V58.6666666666667C48 52.7754666666667 52.7755733333333 48 58.6666666666667 48H90.6666666666667V128C90.6666666666667 139.7824 100.21792 149.3333333333334 112 149.3333333333334H144C155.7824 149.3333333333334 165.3333333333333 139.7824 165.3333333333333 128V48H197.3333333333333C203.2245333333333 48 208 52.7754666666667 208 58.6666666666667V167.4664533333333L134.3488 222.0226133333334zM144 48V128H112V48H144zM101.3333333333333 26.6666666666667H58.6666666666667C40.9936 26.6666666666667 26.6666666666667 40.9930666666667 26.6666666666667 58.6666666666667V151.664L19.14912 146.0949333333334C14.4152533333333 142.5888 7.7352213333333 143.584 4.2287146666667 148.3178666666667C0.7222090666667 153.0514133333334 1.7171093333333 159.7314133333333 6.4509013333333 163.2379733333334L108.9525333333333 239.1652266666667C120.2677333333333 247.5467733333334 135.7322666666667 247.5467733333334 147.0474666666667 239.1652266666667L249.5488 163.2379733333334C254.2826666666667 159.7314133333333 255.2778666666667 153.0514133333334 251.7717333333333 148.3178666666667C248.2645333333333 143.584 241.5850666666667 142.5888 236.8512 146.0949333333334L229.3333333333333 151.664V58.6666666666667C229.3333333333333 40.9930666666667 215.0069333333333 26.6666666666667 197.3333333333333 26.6666666666667H154.6666666666667H101.3333333333333z" />
    <glyph glyph-name="home-solid"
      unicode="&#xEA66;"
      horiz-adv-x="256" d="M32 150.46432L24.38944 144.3029333333333C18.66592 139.6704 10.270144 140.5536 5.6368533333333 146.2773333333333C1.0035648 152.0008533333334 1.8873386666667 160.3966933333334 7.6108053333333 165.0299733333334L106.1879466666667 244.8304C118.9066666666667 255.1266816 137.0933333333333 255.1266816 149.8122666666667 244.8304L248.3893333333334 165.0299733333334C254.1130666666667 160.3966933333334 254.9962666666667 152.0008533333334 250.3637333333333 146.2773333333333C245.7301333333333 140.5536 237.3344 139.6704 231.6106666666667 144.3029333333333L224 150.4645333333334V61.3674666666667C224 49.5850666666667 214.4490666666667 40.0341333333333 202.6666666666667 40.0341333333333L165.3333333333333 40.0341333333333C159.4421333333333 40.0341333333333 154.6666666666667 44.8096 154.6666666666667 50.7008V128C154.6666666666667 133.8912 149.8912 138.6666666666667 144 138.6666666666667H112C106.1090133333333 138.6666666666667 101.3333333333333 133.8912 101.3333333333333 128V50.7018666666667C101.3333333333333 44.8106666666667 96.5576533333333 40.0341333333333 90.66656 40.0352L53.3332266666667 40.0352C41.5511466666667 40.0352 32 49.5861333333334 32 61.3685333333334V150.46432z" />
    <glyph glyph-name="home-light-sharp"
      unicode="&#xEA67;"
      horiz-adv-x="256" d="M128 246.5442666666667L251.0912 159.0130133333333L244.9088 150.3202133333334L224 165.1889066666667V32H32V165.1889066666667L11.0907733333333 150.3202133333334L4.909184 159.0130133333333L128 246.5442666666667zM42.6666666666667 172.7741866666667V42.6666666666667H96V144H160V42.6666666666667H213.3333333333333V172.77408L128 233.4555733333334L42.6666666666667 172.7741866666667zM149.3333333333333 42.6666666666667V133.3333333333334H106.6666666666667V42.6666666666667H149.3333333333333z" />
    <glyph glyph-name="home-regular-sharp"
      unicode="&#xEA68;"
      horiz-adv-x="256" d="M128 249.8165653333334L252.6357333333333 161.1863466666667L243.3642666666667 148.1472L226.6666666666667 160.0205866666667V29.3333333333333H29.3333333333333V160.0205866666667L12.63616 148.1472L3.3637653333333 161.1863466666667L128 249.8165653333334zM45.3333333333333 171.3984V45.3333333333333H93.3333333333333V146.6666666666667H162.6666666666667V45.3333333333333H210.6666666666667V171.3984L128 230.1835733333334L45.3333333333333 171.3984zM146.6666666666667 45.3333333333333V130.6666666666667H109.3333333333333V45.3333333333333H146.6666666666667z" />
    <glyph glyph-name="home-bold-sharp"
      unicode="&#xEA69;"
      horiz-adv-x="256" d="M128 253.088704L254.1813333333334 163.3595733333334L241.8186666666667 145.9733333333334L229.3333333333333 154.85216V26.6666666666667H26.66656V154.85216L14.1815466666667 145.9733333333334L1.8183573333333 163.3595733333334L128 253.088704zM47.9998933333333 170.0225066666667V48H90.6666666666667V149.3333333333334H165.3333333333333V48H208V170.0225066666667L128 226.91136L47.9998933333333 170.0225066666667zM144 48V128H112V48H144z" />
    <glyph glyph-name="home-solid-sharp"
      unicode="&#xEA6A;"
      horiz-adv-x="256" d="M254.1813333333334 163.3595733333334L241.8186666666667 145.9733333333334L218.6666666666667 162.4373333333334V37.3333333333333H154.6666666666667V133.3333333333334H101.3333333333333V37.3333333333333H37.3332266666667V162.4373333333334L14.1815466666667 145.9733333333334L1.8183573333333 163.3595733333334L128 253.088704L254.1813333333334 163.3595733333334z" />
    <glyph glyph-name="folder-light"
      unicode="&#xEA6B;"
      horiz-adv-x="256" d="M37.3333333333333 160C28.4967466666667 160 21.3333333333333 152.8365866666667 21.3333333333333 144V53.3333333333333C21.3333333333333 44.4970666666667 28.4967466666667 37.3333333333333 37.3333333333333 37.3333333333333H218.6666666666667C227.5029333333333 37.3333333333333 234.6666666666667 44.4970666666667 234.6666666666667 53.3333333333333V144C234.6666666666667 152.8365866666667 227.5029333333333 160 218.6666666666667 160H37.3333333333333zM10.6666666666667 144C10.6666666666667 158.7275733333334 22.60576 170.6666666666667 37.3333333333333 170.6666666666667H218.6666666666667C233.3941333333334 170.6666666666667 245.3333333333333 158.7275733333334 245.3333333333333 144V53.3333333333333C245.3333333333333 38.6058666666667 233.3941333333334 26.6666666666667 218.6666666666667 26.6666666666667H37.3333333333333C22.60576 26.6666666666667 10.6666666666667 38.6058666666667 10.6666666666667 53.3333333333333V144zM37.3333333333333 218.6666666666667C28.4967466666667 218.6666666666667 21.3333333333333 211.5032533333333 21.3333333333333 202.6666666666667V138.6666666666667H10.6666666666667V202.6666666666667C10.6666666666667 217.39424 22.60576 229.3333333333334 37.3333333333333 229.3333333333334H64.4133333333333C72.51424 229.3333333333334 80.1758933333333 225.6509866666667 85.23648 219.3252266666667L93.7594666666667 208.6715733333334C96.7957333333333 204.8760533333334 101.3927466666667 202.6666666666667 106.2533333333333 202.6666666666667H218.6666666666667C233.3941333333334 202.6666666666667 245.3333333333333 190.7275733333334 245.3333333333333 176V138.6666666666667H234.6666666666667V176C234.6666666666667 184.8365866666667 227.5029333333333 192 218.6666666666667 192H106.2533333333333C98.1524266666667 192 90.4907733333333 195.6823466666667 85.4301866666667 202.0081066666667L76.9072 212.66176C73.8709333333333 216.45728 69.27392 218.6666666666667 64.4133333333333 218.6666666666667H37.3333333333333z" />
    <glyph glyph-name="folder-regular"
      unicode="&#xEA6C;"
      horiz-adv-x="256" d="M37.3333333333333 157.3333333333334C29.9694933333333 157.3333333333334 24 151.36384 24 144V53.3333333333333C24 45.9690666666667 29.9694933333333 40 37.3333333333333 40H218.6666666666667C226.0309333333334 40 232 45.9690666666667 232 53.3333333333333V144C232 151.36384 226.0309333333334 157.3333333333334 218.6666666666667 157.3333333333334H37.3333333333333zM8 144C8 160.20032 21.1330133333333 173.3333333333334 37.3333333333333 173.3333333333334H218.6666666666667C234.8672 173.3333333333334 248 160.20032 248 144V53.3333333333333C248 37.1328 234.8672 24 218.6666666666667 24H37.3333333333333C21.1330133333333 24 8 37.1328 8 53.3333333333333V144zM37.3333333333333 216C29.9694933333333 216 24 210.0305066666667 24 202.6666666666667V138.6666666666667H8V202.6666666666667C8 218.8669866666667 21.1330133333333 232 37.3333333333333 232H64.4133333333333C73.3243733333333 232 81.7522133333333 227.9493333333334 87.3188266666667 220.99104L95.8417066666667 210.3373866666667C98.3720533333333 207.1745066666667 102.20288 205.3333333333334 106.2533333333333 205.3333333333334H218.6666666666667C234.8672 205.3333333333334 248 192.20032 248 176V138.6666666666667H232V176C232 183.36384 226.0309333333334 189.3333333333334 218.6666666666667 189.3333333333334H106.2533333333333C97.3422933333333 189.3333333333334 88.9144533333333 193.384 83.34784 200.3422933333334L74.82496 210.9959466666667C72.2946133333333 214.1588266666667 68.4637866666667 216 64.4133333333333 216H37.3333333333333z" />
    <glyph glyph-name="folder-bold"
      unicode="&#xEA6D;"
      horiz-adv-x="256" d="M37.3333333333333 154.6666666666667C31.4423466666667 154.6666666666667 26.6666666666667 149.8909866666667 26.6666666666667 144V53.3333333333333C26.6666666666667 47.4421333333333 31.4423466666667 42.6666666666667 37.3333333333333 42.6666666666667H218.6666666666667C224.5578666666667 42.6666666666667 229.3333333333333 47.4421333333333 229.3333333333333 53.3333333333333V144C229.3333333333333 149.8909866666667 224.5578666666667 154.6666666666667 218.6666666666667 154.6666666666667H37.3333333333333zM5.3333333333333 144C5.3333333333333 161.6730666666667 19.6602666666667 176 37.3333333333333 176H218.6666666666667C236.3402666666667 176 250.6666666666667 161.6730666666667 250.6666666666667 144V53.3333333333333C250.6666666666667 35.6597333333334 236.3402666666667 21.3333333333333 218.6666666666667 21.3333333333333H37.3333333333333C19.6602666666667 21.3333333333333 5.3333333333333 35.6597333333334 5.3333333333333 53.3333333333333V144zM37.3333333333333 213.3333333333334C31.4423466666667 213.3333333333334 26.6666666666667 208.5576533333334 26.6666666666667 202.6666666666667V138.6666666666667H5.3333333333333V202.6666666666667C5.3333333333333 220.3397333333333 19.6602666666667 234.6666666666667 37.3333333333333 234.6666666666667H64.4133333333333C74.1344 234.6666666666667 83.3284266666667 230.2477866666667 89.4011733333333 222.65696L97.9240533333333 212.0033066666667C99.9482666666667 209.47296 103.0130133333333 208 106.2533333333333 208H218.6666666666667C236.3402666666667 208 250.6666666666667 193.6730666666667 250.6666666666667 176V138.6666666666667H229.3333333333333V176C229.3333333333333 181.8909866666667 224.5578666666667 186.6666666666667 218.6666666666667 186.6666666666667H106.2533333333333C96.5322666666667 186.6666666666667 87.33824 191.0855466666667 81.2654933333333 198.67648L72.7426133333333 209.3301333333333C70.7184 211.8603733333334 67.6536533333333 213.3333333333334 64.4133333333333 213.3333333333334H37.3333333333333z" />
    <glyph glyph-name="folder-solid"
      unicode="&#xEA6E;"
      horiz-adv-x="256" d="M16 165.3333333333334V202.6666666666667C16 214.4487466666667 25.5512533333333 224 37.3333333333333 224H64.4133333333333C70.89408 224 77.02336 221.05408 81.0718933333333 215.9934933333333L89.5947733333333 205.33984C93.6433066666667 200.2792533333334 99.7725866666667 197.3333333333334 106.2533333333333 197.3333333333334H218.6666666666667C230.4490666666667 197.3333333333334 240 187.78208 240 176V165.3333333333334H16zM16 149.3333333333334V53.3333333333333C16 41.5509333333333 25.5512533333333 32 37.3333333333333 32H218.6666666666667C230.4490666666667 32 240 41.5509333333333 240 53.3333333333333V149.3333333333334H16z" />
    <glyph glyph-name="folder-light-sharp"
      unicode="&#xEA6F;"
      horiz-adv-x="256" d="M10.6666666666667 170.6666666666667H245.3333333333333V26.6666666666667H10.6666666666667V170.6666666666667zM21.3333333333333 160V37.3333333333333H234.6666666666667V160H21.3333333333333zM10.6666666666667 229.3333333333334H77.2299733333333L98.5633066666667 202.6666666666667H245.3333333333333V138.6666666666667H234.6666666666667V192H93.4366933333333L72.10336 218.6666666666667H21.3333333333333V138.6666666666667H10.6666666666667V229.3333333333334z" />
    <glyph glyph-name="folder-regular-sharp"
      unicode="&#xEA70;"
      horiz-adv-x="256" d="M8 173.3333333333334H248V24H8V173.3333333333334zM24 157.3333333333334V40H232V157.3333333333334H24zM8 232H78.51168L99.8450133333333 205.3333333333334H248V138.6666666666667H232V189.3333333333334H92.1549866666667L70.8216533333333 216H24V138.6666666666667H8V232z" />
    <glyph glyph-name="folder-bold-sharp"
      unicode="&#xEA71;"
      horiz-adv-x="256" d="M5.3333333333333 173.3333333333334H250.6666666666667V21.3333333333333H5.3333333333333V173.3333333333334zM26.6666666666667 152V42.6666666666667H229.3333333333333V152H26.6666666666667zM5.3333333333333 234.6666666666667H79.79328L101.12672 208H250.6666666666667V138.6666666666667H229.3333333333333V186.6666666666667H90.87328L69.5399466666667 213.3333333333334H26.6666666666667V138.6666666666667H5.3333333333333V234.6666666666667z" />
    <glyph glyph-name="folder-solid-sharp"
      unicode="&#xEA72;"
      horiz-adv-x="256" d="M16 165.3333333333334V224H74.6666666666667L96 197.3333333333334H240V165.3333333333334H16zM16 149.3333333333334V32H240V149.3333333333334H16z" />
    <glyph glyph-name="mail-light"
      unicode="&#xEA73;"
      horiz-adv-x="256" d="M16.2288 207.7712C20.2484266666667 211.7908266666667 25.8445866666667 213.3333333333334 32 213.3333333333334H224C230.1557333333334 213.3333333333334 235.7514666666667 211.7908266666667 239.7717333333333 207.7712C243.7909333333334 203.7515733333334 245.3333333333333 198.1554133333334 245.3333333333333 192V69.3333333333333C245.3333333333333 62.2656 241.8528 55.6437333333333 237.1050666666667 50.8949333333333C232.3562666666667 46.1472 225.7344 42.6666666666667 218.6666666666667 42.6666666666667H37.3333333333333C30.2653866666667 42.6666666666667 23.6439466666667 46.1472 18.8954666666667 50.8949333333333C14.14688 55.6437333333333 10.6666666666667 62.2656 10.6666666666667 69.3333333333333V192C10.6666666666667 198.1554133333334 12.2091733333333 203.7515733333334 16.2288 207.7712zM21.5709866666667 195.2775466666667C21.4190933333333 194.33152 21.3333333333333 193.2461866666667 21.3333333333333 192V69.3333333333333C21.3333333333333 65.7344 23.1864533333333 61.6896 26.4378666666667 58.4384C29.6893866666667 55.1861333333333 33.7346133333333 53.3333333333333 37.3333333333333 53.3333333333333H218.6666666666667C222.2656 53.3333333333333 226.3104 55.1861333333333 229.5616 58.4384C232.8138666666667 61.6896 234.6666666666667 65.7344 234.6666666666667 69.3333333333333V192C234.6666666666667 193.2461866666667 234.5813333333334 194.33152 234.4288 195.2775466666667L138.7029333333333 109.1242666666667C132.6186666666667 103.648 123.3813333333333 103.648 117.2970666666667 109.1242666666667L21.5709866666667 195.2775466666667zM29.4576 202.5301333333334L124.432 117.0528C126.4608 115.2277333333333 129.5392 115.2277333333333 131.568 117.0528L226.5429333333333 202.5301333333334C225.7792 202.6183466666667 224.9354666666667 202.6666666666667 224 202.6666666666667H32C31.0650666666667 202.6666666666667 30.2205866666667 202.6183466666667 29.4576 202.5301333333334z" />
    <glyph glyph-name="mail-regular"
      unicode="&#xEA74;"
      horiz-adv-x="256" d="M14.3431466666667 209.6568533333334C19.0392533333333 214.35296 25.4334933333333 216 32 216H224C230.5664 216 236.9610666666667 214.35296 241.6565333333334 209.6568533333334C246.3530666666667 204.9607466666667 248 198.5665066666667 248 192V69.3333333333333C248 61.3984 244.1130666666667 54.1322666666667 238.9898666666667 49.0101333333333C233.8677333333333 43.8869333333333 226.6016 40 218.6666666666667 40H37.3333333333333C29.3981866666667 40 22.1325866666667 43.8869333333333 17.0098133333333 49.0101333333333C11.88704 54.1322666666667 8 61.3984 8 69.3333333333333V192C8 198.5665066666667 9.64704 204.9607466666667 14.3431466666667 209.6568533333334zM36.25504 200L126.2165333333333 119.0346666666667C127.2298666666667 118.1226666666667 128.7701333333333 118.1226666666667 129.7834666666667 119.0346666666667L219.7450666666667 200H36.25504zM232 189.5037866666667L140.4874666666667 107.1424C133.3888 100.7530666666667 122.6112 100.7530666666667 115.5125333333333 107.1424L24 189.5037866666667V69.3333333333333C24 66.6016 25.4462933333333 63.2010666666667 28.32352 60.3232C31.2007466666667 57.4464 34.6018133333333 56 37.3333333333333 56H218.6666666666667C221.3984 56 224.7989333333333 57.4464 227.6768 60.3232C230.5536 63.2010666666667 232 66.6016 232 69.3333333333333V189.5037866666667z" />
    <glyph glyph-name="mail-bold"
      unicode="&#xEA75;"
      horiz-adv-x="256" d="M12.4574933333333 211.5425066666667C17.83008 216.9150933333334 25.0225066666667 218.6666666666667 32 218.6666666666667H224C230.9770666666667 218.6666666666667 238.1696 216.9150933333334 243.5424 211.5425066666667C248.9152 206.16992 250.6666666666667 198.9774933333334 250.6666666666667 192V69.3333333333333C250.6666666666667 60.5312 246.3733333333334 52.6208 240.8757333333334 47.1242666666667C235.3792 41.6266666666667 227.4688 37.3333333333333 218.6666666666667 37.3333333333333H37.3333333333333C28.53088 37.3333333333333 20.6212266666667 41.6266666666667 15.12416 47.1242666666667C9.627168 52.6208 5.3333333333333 60.5312 5.3333333333333 69.3333333333333V192C5.3333333333333 198.9774933333334 7.0849386666667 206.16992 12.4574933333333 211.5425066666667zM43.2042666666667 197.3333333333334L128 121.0176L212.7957333333333 197.3333333333334H43.2042666666667zM229.3333333333333 183.51616L142.2709333333333 105.1605333333334C134.1578666666667 97.8581333333333 121.8421333333333 97.8581333333333 113.7290666666667 105.1605333333334L26.6666666666667 183.51616V69.3333333333333C26.6666666666667 67.4688 27.7061333333333 64.7125333333333 30.2091733333333 62.2090666666667C32.7121066666667 59.7066666666667 35.46912 58.6666666666667 37.3333333333333 58.6666666666667H218.6666666666667C220.5312 58.6666666666667 223.2874666666667 59.7066666666667 225.7909333333334 62.2090666666667C228.2933333333333 64.7125333333333 229.3333333333333 67.4688 229.3333333333333 69.3333333333333V183.51616z" />
    <glyph glyph-name="mail-solid"
      unicode="&#xEA76;"
      horiz-adv-x="256" d="M16 186.6666666666667L116.7712 124.2848C123.6512 120.0256 132.3488 120.0256 139.2288 124.2848L240 186.6666666666667C240 198.4487466666667 230.4490666666667 208 218.6666666666667 208H37.3333333333333C25.5512533333333 208 16 198.4487466666667 16 186.6666666666667zM240 170.6666666666667V69.3333333333333C240 57.5509333333333 230.4490666666667 48 218.6666666666667 48H37.3333333333333C25.5512533333333 48 16 57.5509333333333 16 69.3333333333333V170.6666666666667L116.7712 108.2848C123.6512 104.0256 132.3488 104.0256 139.2288 108.2848L240 170.6666666666667z" />
    <glyph glyph-name="mail-light-sharp"
      unicode="&#xEA77;"
      horiz-adv-x="256" d="M10.6666666666667 213.3333333333334H245.3333333333333V42.6666666666667H10.6666666666667V213.3333333333334zM21.3333333333333 195.4914133333334V53.3333333333333H234.6666666666667V195.4914133333334L128 99.4912L21.3333333333333 195.4914133333334zM226.6944 202.6666666666667H29.3058133333333L128 113.8421333333334L226.6944 202.6666666666667z" />
    <glyph glyph-name="mail-regular-sharp"
      unicode="&#xEA78;"
      horiz-adv-x="256" d="M8 216H248V40H8V216zM24 189.5037866666667V56H232V189.5037866666667L128 95.904L24 189.5037866666667zM219.7450666666667 200H36.25504L128 117.4293333333334L219.7450666666667 200z" />
    <glyph glyph-name="mail-bold-sharp"
      unicode="&#xEA79;"
      horiz-adv-x="256" d="M5.3333333333333 218.6666666666667H250.6666666666667V37.3333333333333H5.3333333333333V218.6666666666667zM26.6666666666667 183.51616V58.6666666666667H229.3333333333333V183.51616L128 92.3157333333334L26.6666666666667 183.51616zM212.7957333333333 197.3333333333334H43.2042666666667L128 121.0176L212.7957333333333 197.3333333333334z" />
    <glyph glyph-name="mail-solid-sharp"
      unicode="&#xEA7A;"
      horiz-adv-x="256" d="M16 186.6666666666667L128 117.3333333333334L240 186.6666666666667V208H16V186.6666666666667zM240 170.6666666666667V48H16V170.6666666666667L128 101.3333333333333L240 170.6666666666667z" />
    <glyph glyph-name="bell-regular"
      unicode="&#xEA7D;"
      horiz-adv-x="256" d="M50.1226666666667 138.9013333333334C48.3946666666667 184.1386666666667 79.7546666666667 230.9333333333334 128 230.9333333333334S207.6053333333333 184.1386666666667 205.8773333333333 138.9013333333334C205.4186666666667 126.848 206.1973333333333 115.808 208.704 106.9973333333333C211.2213333333333 98.1973333333333 215.1786666666667 92.512 220.4693333333333 89.5786666666667C224.768 87.2 229.472 83.968 233.184 79.7653333333333C236.9493333333333 75.4986666666667 240 69.8453333333333 240 62.9333333333333A24 24 0 0 0 216 38.9333333333333H40A24 24 0 0 0 16 62.9333333333333C16 69.8453333333333 19.0506666666667 75.4986666666667 22.816 79.7546666666667C26.528 83.968 31.2426666666667 87.1893333333333 35.5306666666667 89.5786666666667C40.8213333333333 92.512 44.7786666666667 98.1973333333334 47.296 106.9973333333334C49.8026666666667 115.808 50.5813333333333 126.8373333333334 50.1226666666667 138.9013333333334zM128 214.9333333333333C91.6693333333333 214.9333333333333 64.608 178.784 66.112 139.52C66.6026666666667 126.6346666666667 65.8453333333333 113.7066666666667 62.6773333333334 102.6133333333334C59.5093333333334 91.5093333333334 53.6533333333333 81.344 43.3066666666667 75.5946666666667C39.872 73.696 36.8746666666667 71.5093333333334 34.8053333333333 69.1733333333334C32.8 66.8906666666667 32 64.8533333333334 32 62.9333333333333C32 58.5173333333333 35.584 54.9333333333333 40 54.9333333333333H216A8 8 0 0 1 224 62.9333333333333C224 64.8533333333333 223.2 66.8906666666667 221.184 69.1733333333334C219.1253333333334 71.5093333333334 216.128 73.696 212.6933333333333 75.5946666666667C202.3466666666667 81.344 196.48 91.5093333333334 193.3226666666667 102.6133333333334C190.1546666666667 113.7066666666667 189.3973333333333 126.6346666666667 189.888 139.52C191.392 178.784 164.3306666666667 214.9333333333333 128 214.9333333333333zM128 236.2666666666667C120.64 236.2666666666667 114.6666666666667 230.2933333333333 114.6666666666667 222.9333333333333A8 8 0 0 0 98.6666666666667 222.9333333333333A29.333333333333336 29.333333333333336 0 1 0 157.3333333333334 222.9333333333333A8 8 0 0 0 141.3333333333334 222.9333333333333C141.3333333333334 230.2933333333334 135.36 236.2666666666667 128 236.2666666666667zM96 52.2666666666667A8 8 0 0 0 104 44.2666666666667A24 24 0 0 1 152 44.2666666666667A8 8 0 0 0 168 44.2666666666667A40 40 0 1 0 88 44.2666666666667A8 8 0 0 0 96 52.2666666666667z" />
    <glyph glyph-name="bell-regular-sharp"
      unicode="&#xEA7E;"
      horiz-adv-x="256" d="M50.1226666666667 138.9013333333334C48.3946666666667 184.1386666666667 79.7546666666667 230.9333333333334 128 230.9333333333334S207.6053333333333 184.1386666666667 205.8773333333333 138.9013333333334C205.2906666666667 123.4346666666667 206.7413333333333 109.9093333333333 211.0613333333333 100.5333333333334C213.1626666666667 95.968 215.8186666666667 92.672 218.9973333333333 90.4853333333334C222.1226666666667 88.352 226.272 86.9333333333334 232 86.9333333333334H240V38.9333333333334H16V86.9333333333334H24C29.728 86.9333333333334 33.8773333333333 88.3413333333334 37.0133333333333 90.4853333333334C40.1813333333333 92.672 42.8373333333333 95.968 44.9386666666667 100.5333333333334C49.2586666666667 109.9093333333334 50.7093333333333 123.4453333333334 50.1226666666667 138.9013333333334zM128 214.9333333333333C91.6693333333333 214.9333333333333 64.608 178.784 66.112 139.52C66.7306666666667 123.2746666666667 65.3866666666667 106.6773333333333 59.4666666666667 93.8346666666667C56.4586666666667 87.296 52.128 81.4613333333334 46.0586666666667 77.3013333333334A35.797333333333334 35.797333333333334 0 0 0 32 71.6266666666667V54.9333333333333H224V71.6266666666667A35.78666666666666 35.78666666666666 0 0 0 209.952 77.3013333333333C203.872 81.4613333333333 199.5413333333334 87.296 196.5333333333333 93.8346666666667C190.6133333333334 106.6773333333333 189.28 123.2746666666667 189.888 139.5093333333333C191.392 178.784 164.3306666666667 214.9226666666667 128 214.9226666666667zM128 236.2666666666667C120.64 236.2666666666667 114.6666666666667 230.2933333333333 114.6666666666667 222.9333333333333A8 8 0 0 0 98.6666666666667 222.9333333333333A29.333333333333336 29.333333333333336 0 1 0 157.3333333333334 222.9333333333333A8 8 0 0 0 141.3333333333334 222.9333333333333C141.3333333333334 230.2933333333334 135.36 236.2666666666667 128 236.2666666666667zM96 52.2666666666667A8 8 0 0 0 104 44.2666666666667A24 24 0 0 1 152 44.2666666666667A8 8 0 0 0 168 44.2666666666667A40 40 0 1 0 88 44.2666666666667A8 8 0 0 0 96 52.2666666666667z" />
    </font>
</defs>
</svg>
